<svg width="504" height="364" fill="none" xmlns="http://www.w3.org/2000/svg"><path d="M244.525 308.085c118.027 18.982 242.927-25.974 257.456-116.313 14.529-90.339-75.506-160.401-193.533-179.383C160.306-11.437 77.688 76.006 63.159 166.345c-14.529 90.339 63.339 122.757 181.366 141.74z" fill="#FFF9F5"/><path d="M129.925 218.751c.643-2.865-1.915-4.105-5.246-4.851-3.332-.746-6.175-.716-6.818 2.15-.642 2.865 1.537 5.793 4.868 6.539 3.331.746 6.553-.972 7.196-3.838z" fill="#FFAF9D"/><path d="M158.025 336.24h-28.114a4 4 0 01-3.932-3.267l-4.899-26.285a4 4 0 013.932-4.733h33.013a4 4 0 014 4v26.285a4 4 0 01-4 4z" fill="#C5D6E0"/><path d="M491.419 62.657c-2.46-6.802-7.778-6.58-13.665-4.448-5.888 2.133-10.115 5.369-7.654 12.171 2.461 6.803 9.228 10.588 15.115 8.456 5.888-2.133 8.665-9.376 6.204-16.179z" fill="#B7EB6E"/><path d="M240.977 136.894c7.383-7.736-8.863-7.972-15.782-14.59-6.918-6.619-7.509-18.854-14.632-15.525-8.455 3.952-5.522 20.725 1.397 27.343 6.918 6.618 21.633 10.508 29.017 2.772z" fill="#FFDDBF"/><path d="M273.497 362.198c6.612.1 8.725-8.867 2.768-11.741l-13.135-6.337a30.516 30.516 0 01-8.336-5.923l-6.942-6.95c-5.894-5.9-15.969-2.991-17.81 5.142a3.534 3.534 0 001.791 3.902l40.964 21.727c.216.115.456.176.7.18z" fill="#7BB5FB"/><path d="M45.772 310.972c-9.845 4.487-14.425-6.424-23.073-17.805-12.945-1.022-28.449-3.55-20.556-24.327 7.893-20.777 34.98-.002 43.629 11.379 8.648 11.38 9.845 26.266 0 30.753z" fill="#FFB370"/><path d="M372.273 261.847c43.42 1.754 48.606-11.171 50.512-15.215 1.907-4.044 1.802-14.585-7.968-16.89-9.77-2.306-23.728 6.581-44.46 8.037-20.732 1.456-23.438 20.311 1.916 24.068zM55.136 60.44c-2.873 1.27-2.295 3.356-.806 5.573 1.49 2.217 3.325 3.743 6.198 2.472 1.3-.633 2.263-1.63 2.687-2.784.425-1.153.28-2.374-.406-3.41-.686-1.035-1.86-1.806-3.276-2.151a7.298 7.298 0 00-4.336.295l-.061.005z" fill="#B7EB6E"/><path d="M331.645 322.865l-.276-.697.276.697zm115.662-21.334l-.718-.218a.75.75 0 00.414.903l.304-.685zm28.764 0l.292.691a.751.751 0 00.413-.436l-.705-.255zm-23.661-57.994l.392-.639-.392.639zm-2.32-28.765l.163-.732-.163.732zm-23.255-115.74l-.724-.193-.003.012.727.182zm2.066-1.541l-.011.75h.015l-.004-.75zm16.868-.097l.015-.75h-.019l.004.75zm1.926 3.07l.725.192.002-.005-.727-.187zm-6.612 24.926l.724.198.001-.005-.725-.193zm-19.029 2.346l-.015.75h.002l.013-.75zm-2.052-2.695l-.725-.191-.001.004.726.187zm1.095-4.168l-.724-.194-.001.003.725.191zm36.416 82.301l.294-.69v-.001l-.294.691zm19.486 28.764l-.335.671.335-.671zm-8.801-8.128l.513-.547-.513.547zm-74.245-82.408l.522-.538-.522.538zm-6.703-20.307l.634.402.001-.002-.635-.4zm7.693-5.661l-.42-.622h-.001l.421.622zm6.102-6.784l-.694-.283h-.001l.695.283zm2.009-6.617a.75.75 0 00-1.5 0h1.5zm-29.979 99.749l.202.722-.202-.722zm24.589 94.645l-.63-.406a.748.748 0 00-.057.705l.687-.299zm-30.257-160.773l-.71-.241v.001l.71.24zm-6.501-33.293l-.285-.694.285.694zm-18.452-22.597l-.732.161.732-.161zm19.95-27.837l.221.717-.221-.717zm29.59 4.553l.498-.562h-.001l-.497.562zm9.526 28.72l.473-.581-.002-.001-.471.583zm3.197 6.051l.234.713.002-.001-.236-.712zm-2.413 5.679l.361.657a.75.75 0 00.383-.75l-.744.093zm-47.787 6.031h-.75a.75.75 0 00.513.711l.237-.711zM480.855 219.94l.362-.657v-.001l-.362.658zm7.743 1.792l-.342-.668.342.668zm-13.972-11.696l.392-.639-.006-.004-.386.643zm-22.898 112.318l-.336.67.336-.67zm1.942-4.735l.337-.67-.337.67zm34.503 17.292l.336-.67-.336.67zm6.7-2.412l.652-.371-.001-.001-.651.372zm-5.432-5.532l.425-.617-.002-.002-.423.619zm5.62 8.762l-.647-.379.647.379zm-30.31-12.556l-.336.67.336-.67zm12.341-5.938l.493-.565-.493.565zM414.51 126.158l.746.083-.746-.083zm3.804-11.05l-.631-.405v.001l.631.404zm9.361-9.363l.173-.73a.748.748 0 00-.607.118l.434.612zm1.031 4.497l-.652-.371.652.371zm-7.38 29.371l-.697.278.697-.278zm45.751-68.673l-.702.263.001.002.701-.265zm-1.189 3.904l.473.583.001-.002-.474-.58zm-8.69 7.055l-.473-.583a.75.75 0 00.821 1.247l-.348-.664zm10.771-5.634l.348.665h.001l-.349-.665zm3.69.24l-.406.631.004.002.402-.633zm-90.233 58.004l.088-.744-.088.744zm31.548 75.16l-.266.701a.744.744 0 00.114.033l.152-.734zm58.374 17.67l.601-.449-.601.449zm-70.436-52.466l.684.308-.684-.308zm-1.392-26.445l-.644.384.644-.384zm-32.622-87.89a.75.75 0 00-1.034 1.087l1.034-1.087zm4.611 28.61l-.737-.136a.75.75 0 001.33.596l-.593-.46zm-2.407-7.692l-.554.505.554-.505zm-8.691 1.255l-.74-.118-.001.002.741.116zm4.215 12.457l-.736.143.001.005.735-.148zm32.464-21.952l.74-.126-.74.126zm-15.76 9.76a.75.75 0 001.12.998l-1.12-.998zm10.264-.463A.75.75 0 10392.6 81.4l-1.006 1.112zm-5.064 13.025l.419-.622a.75.75 0 00-1.169.638l.75-.016zm12.995 7.181l-.128-.739-.007.001.135.738zm3.039-.066a.75.75 0 00-.52-1.408l.52 1.408zM245.026 246.121l.741.117a.748.748 0 00-.741-.867v.75zm54.804 37.653l.403.633a.75.75 0 00.347-.633h-.75zm0-57.017l-.75-.003v.003h.75zm-83.817-2.985l.335.671.006-.003-.341-.668zm47.121 61.957l-.75-.004a.751.751 0 00.481.704l.269-.7zm-32.86 24.795l-.715-.225a.748.748 0 00.349.879l.366-.654zm35.736 4.131l.305.685a.75.75 0 00.432-.547l-.737-.138zm4.912-26.71l.143-.736-.143.736zM256.554 117.28l-.744.095.744-.095zm18.784 32.856l-.618.424v.001l.618-.425zm-25.427-60.442l.393-.639a.75.75 0 00-1.143.64h.75zM247.984 96l.527.534h.001l-.528-.534zm-7.82-1.685l-.508.551h.001l.507-.551zm-22.705 0l.508.552-.508-.552zM209.639 96l-.528.533h.001l.527-.533zm-1.927-6.306h.75a.75.75 0 00-1.142-.639l.392.64zm.02-8.338l-.718.216a.75.75 0 001.468-.216h-.75zm-9.308-3.817l.393.64-.393-.64zm-2.835 9.88l.675-.329-.675.328zm54.24-6.743l-.75-.025a.75.75 0 001.468.24l-.718-.215zm9.37-3.137l-.393.64.393-.64zm2.835 9.88l-.675-.329.675.328zm-53.67-21.313l-.706-.252h-.001l.707.252zm-7.789 139.512l-.307-.684a.601.601 0 00-.044.022l.351.662zm-1.111 1.32l.735.149.002-.007-.737-.142zm2.59 2.386l-.095.744h.001l.094-.744zm10.032-1.975l-.238-.711h-.002l.24.711zm8.158-2.773l.244.709-.244-.709zm4.832-.675a.75.75 0 10-.369-1.454l.369 1.454zm-21.095 8.043l-.357-.66.357.66zm-.863 3.221l.547-.513h-.001l-.546.513zm7.551-.236l.254.705h.002l-.256-.705zm15.803-6.082l.257.705.005-.002-.262-.703zm.836.904l.438.609.003-.003-.441-.606zm-16.282 10.945l-.38-.647.38.647zm-2.121 2.223l-.749.04v.001l.749-.041zM81.084 206.424l.276.698.001-.001-.277-.697zm11.694-16.336l-.438-.609.438.609zm14.123-4.168a.75.75 0 00-.908-1.194l.908 1.194zm-7.091 3.799l-.395-.638v.001l.395.637zm-.204 3.787l.31-.683h-.002l-.308.683zm10.875-2.859l.416.624.001-.001-.417-.623zm19.939-8.743l.331.673h.001l-.332-.673zm34.797-16.955l-.338-.67.338.67zm22.583-6.397l.417-.623-.417.623zm3.466 16.184l-.73-.172v.001l.73.171zm-7.361 24.622l.715.227-.715-.227zm-4.69 25.626l-.746.072.746-.072zm71.919-2.518l.309.683.004-.001-.313-.682zM223.469 94.432a.75.75 0 10-.845 1.239l.845-1.24zm11.22.864a.75.75 0 00-.814-1.26l.814 1.26zm-19.248-18.02a.75.75 0 101.263.809l-1.263-.809zm5.971.967a.75.75 0 001.229-.861l-1.229.86zm19.592-4.596a.75.75 0 10.093-1.498l-.093 1.498zm-10.179 2.45l.741.115-.741-.116zm.071 8.569l-.732-.163-.001.003.733.16zm-5.995.416l-.701.267.001.002.7-.27zm-.041-8.986l-.741.115v.002l.741-.117zm-10.272-3.947a.75.75 0 10.093 1.498l-.093-1.498zm24.385 5.936a.75.75 0 101.263-.809l-1.263.809zm-5.937-.703a.75.75 0 101.228.86l-1.228-.86zm-4.102 256.197l-.708-.246-.001.002.709.244zm3.314 6.874l.397-.636-.397.636zm30.902 16.194l-.324.676.324-.676zm12.398 5.391l-.153.735.153-.735zm12.983-7.106l.726.187a.669.669 0 00.016-.075l-.742-.112zm-6.77-9.696l-.461.591.461-.591zm-22.766-18.967l-.605.442.001.001.604-.443zm-29.122 4.62l-.708-.249.708.249zm3.674 4.396l-.402.633.001.001.401-.634zm15.875 8.518l-.326.676.326-.676zm15.507 8.164l-.329.674h.001l.328-.674zm12.591 5.553l-.155.734h.001l.154-.734zm-43.028-39.101l-.697-.277.697.277zm40.691-7.177l-.75-.012v.002l.75.01zm5.295 5.494l.179-.728-.179.728zm57.989-3.836l.74-.126-.74.126zm-41.585-27.492l-.324-.677.324.677zm-16.785 26.013l-.184.727.001.001.183-.728zm17.741 3.131l-.098.743h.001l.097-.743zm17.282 2.907l-.101.743v.001l.101-.744zm13.697 1.341l.081.745h.001l-.082-.745zm-52.961-23.629l-.749-.038.749.038zm32.574 9.684l-.713.235.713-.235zm-3.063 1.008l-.712.234.712-.234zm10.532 1.065l-.713.235.713-.235zm-1.027 2.037l.234.712-.234-.712zm-2.035-1.029l-.713.234.713-.234zm1.026-2.037l.235.713-.235-.713zm-13.24-4.138l.713-.234-.713.234zm-1.027 2.037l.235.712-.235-.712zm-2.035-1.029l.712-.235-.712.235zm1.027-2.037l.234.712-.234-.712zm-53.562-157.955l-.298-.688.298.688zM78.657 193.76l.257.705h.001l-.258-.705zm-5.546 1.726l.176.729-.176-.729zm-4.567 1.472l-.719-.216.719.216zm140.61 4.569l.29.692-.29-.692zm-.485-14.659l.75-.025-.001-.009-.749.034zm1.295-1.924l-.256-.705.256.705zm14.077-5.104l.256.705-.256-.705zm2.637 1.777l.75-.024-.001-.007-.749.031zm.474 15.017l.131.738-.131-.738zm-12.187-10.262a.75.75 0 00.512 1.41l-.512-1.41zm4.676-.1a.75.75 0 10-.511-1.41l.511 1.41zm111.503-51.492a.75.75 0 10.222-1.483l-.222 1.483zm-15.991-4.508l-.75.021v.002l.75-.023zm3.349-2.17l-.023.75h.013l.01-.75zm4.366.225l.08-.746h-.002l-.078.746zm21.661 27.32l-.454.596c.024.019.05.036.077.052l.377-.648zm-11.08-13.722l-.557.503.557-.503zm-7.21-4.229l.128-.739-.021-.003-.107.742zm-7.546-1.272l-.139.738h.001l.138-.738zm-2.683-2.21l-.749-.023v.003l.749.02zm-21.861-90.2l-.734.15a.75.75 0 001.479-.236l-.745.085zm-6.388-4.376l.012.75-.012-.75zm-5.729 5.63l-.742-.113.742.112zm1.765 9.113l-.642.389h.001l.641-.39zm10.93.137l.75-.006a.75.75 0 00-1.344-.451l.594.457zm-12.908 55.712l-.612-.435.612.435zm55.341-66.217l-.746-.073a.75.75 0 001.483.214l-.737-.14zm-22.996 60.811l.747-.067-.002-.014-.745.081zm20.396-.027l-.747-.068v.007l.747.061zm8.918-65.158l-.013.75h.001l.012-.75zm5.818 5.63l-.74.122v.001l.74-.123zm-1.623 9.113l.645.382-.645-.382zm-10.926.138l.59-.463a.75.75 0 00-1.34.469l.75-.006zm16.557 58.895l-.571.487.571-.487zm-51.997-30.31l-.677-.323.677.322zm54.416-53.854a.75.75 0 000-1.5v1.5zm-63.199-13.304l-.75.006.75-.006zm9.995-10.071v-.75.75zm25.64 0v-.75.75zm10.154 10.07l.75-.005-.75.006zm-35.437 18.362a.75.75 0 001.034 1.087l-1.034-1.087zm9.142-.36l.466-.588h-.001l-.465.587zm1.343 7.597l.718.217-.718-.217zm-1.973 5.42l-.699-.273v.002l.699.272zm-1.619 5.586l.738-.134v-.001l-.738.135zm5.26 2.318l.015-.75h-.001l-.014.75zm6.199-1.884l.702.265v-.002l-.702-.263zm.305-2.804a.75.75 0 00-1.355.644l1.355-.644zm-19.02-9.379a.75.75 0 101.272.794l-1.272-.794zm5.57.498a.75.75 0 101.358-.636l-1.358.636zm13.276-.498a.75.75 0 001.272.794l-1.272-.794zm5.57.498a.75.75 0 101.358-.636l-1.358.636zm6.825-10.105l.591-.461-.591.461zm1.06 7.052l.749.043-.749-.043zm-.847 11.011l.741.115-.741-.115zm-3.716 8.533l.512.548-.512-.548zm-7.898 1.055l.182-.728-.182.728zm-11.693-.315l.109.742-.109-.742zm-9.578-.78l-.508.552.508-.552zm-3.854-8.533l-.739.126v.001l.739-.127zm-1.024-11.01l-.748.053v.001l.748-.054zm.949-7.053l.596.456v-.001l-.596-.455zm12.509 31.257a.75.75 0 00-.531 1.403l.531-1.403zm13.532 1.06a.75.75 0 00-.677-1.338l.677 1.339zm-3.473 44.044l.75.004v-.004h-.75zm13.602 22.607a.75.75 0 10.132-1.494l-.132 1.494zm-13.553-2.15l.119-.74-.022-.003-.097.743zm-2.831-2.091l.749-.02v-.002l-.749.022zm1.752-1.626l.132.739.002-.001-.134-.738zm5.314-.023l-.039.749h.001l.038-.749zm8.123.957l-.112.742.112-.742zm1.369-.922l.652-.372-.652.372zm-2.936-1.891l-.373.65.001.001.372-.651zm-9.325-6.031l-.475.581.002.002.473-.583zm-.859-3.805l.442.606.002-.001-.444-.605zm1.981-.146l.206-.721-.003-.001-.203.722zm4.096 2.202l-.369.653v.001l.369-.654zm12.369 6.846l.439-.609-.003-.001-.436.61zm5.64 9.694l.716-.221-.716.221zm5.836 43.409l.75-.008v-.001l-.75.009zm-.707 6.359a.749.749 0 101.5-.002l-1.5.002zM67.808 124.001a.75.75 0 00-1.5 0h1.5zm-1.5 5.424a.75.75 0 001.5 0h-1.5zm1.5 5.424a.75.75 0 00-1.5 0h1.5zm-1.5 5.424a.75.75 0 001.5 0h-1.5zm-1.964-7.386a.75.75 0 000-1.5v1.5zm-5.427-1.5a.75.75 0 000 1.5v-1.5zm16.283 1.5a.75.75 0 000-1.5v1.5zm-5.428-1.5a.75.75 0 000 1.5v-1.5zm26.265-98.122a.75.75 0 10-1.5 0h1.5zm-1.5 5.424a.75.75 0 001.5 0h-1.5zm1.5 5.424a.75.75 0 00-1.5 0h1.5zm-1.5 5.424a.75.75 0 001.5 0h-1.5zm-1.964-7.386a.75.75 0 000-1.5v1.5zm-5.427-1.5a.75.75 0 000 1.5v-1.5zm16.283 1.5a.75.75 0 000-1.5v1.5zm-5.428-1.5a.75.75 0 000 1.5v-1.5zm390.921 112.122a.75.75 0 00-1.5 0h1.5zm-1.5 5.424a.75.75 0 001.5 0h-1.5zm1.5 5.424a.75.75 0 00-1.5 0h1.5zm-1.5 5.424a.75.75 0 001.5 0h-1.5zm-1.964-7.386a.75.75 0 000-1.5v1.5zm-5.428-1.5a.75.75 0 000 1.5v-1.5zm16.284 1.5a.75.75 0 000-1.5v1.5zm-5.428-1.5a.75.75 0 000 1.5v-1.5zm-70.714 163.623l-.611.435.001.001.61-.436zm13.961 19.054l-.576.481.576-.481zm-2.874 8.764l.17.73h.002l-.172-.73zm-2.415 5.401l-.019-.749h-.001l.02.749zm-11.823-5.327l-.464.589.464-.589zm-19.681-17.872l.527-.534h-.001l-.526.534zm-5.07-7.253l-.722.203.722-.203zm30.877 1.453l.614-.43-.614.43zm-384.918 12.68l-.417.623.417-.623zm-8-22.845l.749-.027a.75.75 0 00-1.442-.262l.692.289zm28.633 18.481l.291.691-.291-.691zm14.65-20.438l-.713-.231.713.231zm41.143-65.509l-.017-.75.017.75zm33.549 36.313l-.704.261.704-.261zm-22.342-92.115a.751.751 0 00-.883 1.214l.883-1.214zm53.972 79.751l-.677-.323v.001l.677.322zm-18.044 7.66l-.193.725.193-.725zm-29.992-43.47l.749-.047-.749.047zm1.131-28.139l-.747.066v.001l.747-.067zm-4.157-11.787l-.609.438.609-.438zm-34.276 11.787l-.747-.067v.002l.747.065zm1.131 28.139l-.748-.047.748.047zm-29.992 43.47l-.193-.724.193.724zm-18.043-7.66l.677-.322v-.001l-.677.323zm18.043-31.711l.542.519-.542-.519zm35.647-46.84l.48.576-.48-.576zm33.95 57.318l.688-.3-.688.3zm42.398 37.002a.75.75 0 10-1.103-1.016l1.103 1.016zm-3.48 1.563a.75.75 0 001.103 1.016l-1.103-1.016zm6.738 5.246a.751.751 0 00-.208-1.486l.208 1.486zm-4.047-.949a.75.75 0 10.208 1.485l-.208-1.485zm-7.598-5.691a.751.751 0 001.498.084l-1.498-.084zm1.716-3.779a.75.75 0 00-1.498-.084l1.498.084zm-58.766-60.53a.75.75 0 00-1.094 1.026l1.094-1.026zm14.835 1.007a.75.75 0 10-1.128-.988l1.128.988zm-5.194-20.565a.75.75 0 001.5 0h-1.5zm5.519 0a.75.75 0 001.5 0h-1.5zm-19.862 0a.75.75 0 001.5 0h-1.5zm5.519 0a.75.75 0 001.5 0h-1.5zm1.359 131.564v.75a.75.75 0 00.75-.75h-.75zM5.987 250.527l.27-.7a.75.75 0 00-1 .528l.73.172zm15.122 34.278v-.75.75zm70.813 39.923l-.566.492.566-.492zm-2.964-12.001a.75.75 0 10-1.495-.123l1.495.123zm7.48 7.165a.75.75 0 10-1.446.399l1.446-.399zm12.186 1.125l.725.191-.725-.191zm-6.134-2.627a.751.751 0 00-1.452.378l1.452-.378zm24.879-45.998a.75.75 0 001.453.373l-1.453-.373zm.511.891a.75.75 0 10.452-1.43l-.452 1.43zm-29.155-.24a.75.75 0 101.453-.373l-1.453.373zm.49-.912a.75.75 0 10.451 1.43l-.452-1.43zm234.242-153.672l-.329.673.329-.673zm-17.876-43.558v-.75.75zM299.83 235.828a.75.75 0 000 1.5v-1.5zM227.885 52.509l.041.75-.041-.75zm33.909 77.361l-.66.357.66-.357zM75.272 206.827l-.418.622.418-.622zm.252-3.423l.353.662-.353-.662zm163.369 74.991l.732.165-.732-.165zm37.202 10.277l.065-.747-.065.747zm32.578 32.973l.099-.743-.099.743zm11.82 1.685l.112-.742-.112.742zm0-20.255l-.218.717.218-.717zm14.931 5.532l-.419.622.419-.622zm-60.173-.166l-.749-.024.749.024zm12.986-131.035l.75-.021-.75.021zm-59.952 31.134l.643-.386-.643.386zm177.127 96.358l.404-.631-.404.631zm17.221 3.296l.495.564-.495-.564zm26.389-5.928l.286-.694-.286.694zm36.804 22.076l.453-.597-.453.597zm-6.587-92.256l.47.584-.47-.584zm-.708-4.281l-.674.33.674-.33zm-67.812-66.896l.631.405-.631-.405zm67.077-104.77l-.008.75.008-.75zm0 22.136l.007.75-.007-.75zm11.224-11.068l.75-.003-.75.003zm-22.626 0l.75-.001h-.75zM320.493 260.544h-.75.75zm-6.331-38.3h-.75.75zm6.331 119.422h-.75.75zm63.815.607l.728-.182-.728.182zm8.004-1.243l.725-.191-.725.191zm-57.304 1.249l-.727-.184.727.184zm-33.271-63.884v.75-.75zm25.119 62.634l.725.191-.725-.191zm5.728 2.387h-3.311v1.5h3.311v-1.5zm-5.003-2.196l4.789-18.164-1.45-.382-4.79 18.164 1.451.382zm62.313 2.196h-3.16v1.5h3.16v-1.5zm62.124-99.239c2.989 1.832 4.538 5.226 5.024 9.734.485 4.504-.11 9.979-1.27 15.742-2.323 11.536-6.845 23.945-9.183 31.66l1.435.435c2.302-7.595 6.877-20.171 9.218-31.799 1.172-5.818 1.801-11.469 1.291-16.199-.509-4.726-2.175-8.673-5.731-10.852l-.784 1.279zM427.56 99.227c.158-.59.694-.995 1.33-.986l.021-1.5a2.836 2.836 0 00-2.8 2.098l1.449.388zm1.345-.986l16.868-.097-.008-1.5-16.869.097.009 1.5zm16.849-.098c.363.008.723.233.982.672.261.442.352 1 .233 1.462l1.453.374c.228-.886.048-1.85-.394-2.599-.444-.752-1.222-1.388-2.244-1.408l-.03 1.5zm1.217 2.129l-6.613 24.926 1.45.385 6.612-24.927-1.449-.384zm-6.611 24.92c-.181.663-.516 1.156-.957 1.486-.442.331-1.038.535-1.803.535v1.5c1.038 0 1.963-.281 2.703-.834.74-.555 1.246-1.348 1.504-2.291l-1.447-.396zm-18.291 1.794a1.414 1.414 0 01-1.34-1.758l-1.453-.374c-.468 1.82.896 3.594 2.763 3.632l.03-1.5zm-1.341-1.755l1.095-4.168-1.451-.381-1.095 4.168 1.451.381zm11.011 15.568c-.918 3.212-5.251 16.227-11.181 28.948-2.966 6.36-6.318 12.621-9.828 17.539-3.537 4.957-7.13 8.398-10.531 9.362l.41 1.444c3.934-1.116 7.784-4.948 11.342-9.935 3.586-5.025 6.983-11.378 9.966-17.777 5.967-12.798 10.327-25.887 11.265-29.169l-1.443-.412zm5.861-13.586h-1.892v1.5h1.892v-1.5zm-1.88 0l-13.654-.227-.025 1.5 13.655.226.024-1.499zm-2.538 13.998a209.937 209.937 0 002.328-8.99 230.107 230.107 0 00.867-3.805l.048-.221a.764.764 0 00.012-.057l.004-.014v-.004l.001-.001-.734-.156-.734-.156v.004a17.02 17.02 0 00-.062.286l-.182.827c-.159.712-.391 1.73-.68 2.951a206.317 206.317 0 01-2.311 8.924l1.443.412zm44.153 90.057c-.373-.187-.922-.594-1.615-1.195a51.763 51.763 0 01-2.259-2.115c-1.598-1.568-3.368-3.4-4.75-4.695l-1.026 1.095c1.372 1.285 3.075 3.052 4.725 4.671a54.76 54.76 0 002.327 2.178c.701.607 1.372 1.125 1.927 1.402l.671-1.341zm-82.86-90.404c-1.953-1.899-4.376-5.617-5.911-9.494-.765-1.932-1.294-3.866-1.444-5.6-.151-1.742.086-3.205.764-4.273l-1.267-.804c-.922 1.453-1.158 3.291-.992 5.207.167 1.924.746 4.005 1.544 6.022 1.593 4.022 4.12 7.937 6.261 10.018l1.045-1.076zm-6.59-19.369c.746-1.182 1.92-2.097 3.29-2.95.683-.425 1.392-.82 2.108-1.228a31.387 31.387 0 002.08-1.262l-.841-1.243c-.604.41-1.273.798-1.981 1.201-.701.399-1.443.814-2.158 1.259-1.426.886-2.836 1.948-3.767 3.423l1.269.8zm7.478-5.44c2.623-1.775 5.101-3.985 6.377-7.123l-1.39-.565c-1.11 2.731-3.298 4.733-5.827 6.445l.84 1.243zm6.377-7.122c.844-2.072 1.314-4.709 1.314-6.9h-1.5c0 2.015-.439 4.458-1.203 6.334l1.389.566zm17.884 136.812c3.562-.747 5.881-.693 7.275-.148.675.264 1.118.637 1.401 1.087.287.456.446 1.047.453 1.8.013 1.532-.607 3.576-1.773 6.031-1.156 2.435-2.808 5.194-4.77 8.132-3.924 5.876-9.038 12.396-13.767 18.365-4.711 5.947-9.064 11.374-11.409 15.009l1.261.813c2.294-3.556 6.582-8.906 11.324-14.891 4.724-5.962 9.875-12.528 13.838-18.463 1.982-2.967 3.678-5.794 4.878-8.322 1.191-2.508 1.934-4.805 1.918-6.687-.008-.954-.212-1.838-.684-2.587-.477-.757-1.193-1.32-2.123-1.684-1.818-.711-4.501-.684-8.13.077l.308 1.468zm-46.751-44.685c-5.794 1.622-13.395 3.864-19.812 8.119-6.445 4.274-11.728 10.601-12.812 20.357l1.491.166c1.024-9.215 5.983-15.183 12.15-19.273 6.197-4.109 13.583-6.3 19.387-7.925l-.404-1.444zm-4.755-65.166c1.739-5.136 1.082-11.361-.466-17.359-1.552-6.019-4.033-11.926-6.06-16.479l-1.371.61c2.021 4.539 4.459 10.352 5.979 16.243 1.525 5.912 2.094 11.787.497 16.504l1.421.481zm-24.931-56.292c-1.155-5.225.706-11.038 4.41-16.049 3.698-5.003 9.165-9.106 15.028-10.91l-.441-1.433c-6.2 1.908-11.925 6.218-15.794 11.452-3.863 5.226-5.946 11.477-4.668 17.263l1.465-.323zm19.438-26.958c11.885-3.657 21.352-2.248 28.873 4.398l.993-1.125c-8.014-7.08-18.067-8.473-30.307-4.707l.441 1.434zm38.421 33.138c1.045.85 2.211 1.361 3.107 1.758.464.206.834.371 1.124.54.298.172.414.295.455.365l1.299-.75c-.24-.415-.634-.7-1.001-.913-.375-.218-.827-.417-1.27-.613-.916-.406-1.9-.845-2.767-1.55l-.947 1.163zm4.686 2.663c.117.204.148.597-.08 1.064a2.02 2.02 0 01-1.171 1.03l.472 1.424a3.521 3.521 0 002.048-1.797c.368-.755.474-1.702.03-2.47l-1.299.75zm-1.249 2.094c-1.478.486-2.307 1.539-2.703 2.76-.385 1.185-.369 2.531-.221 3.723l1.489-.185c-.137-1.1-.128-2.193.158-3.075.275-.845.796-1.486 1.745-1.798l-.468-1.425zm-50.491 5.627c-.394-.903-1.223-2.03-2.189-3.245-.491-.619-1.034-1.28-1.598-1.97a155.74 155.74 0 01-1.74-2.153c-2.374-3.004-4.628-6.257-5.278-9.196l-1.465.324c.734 3.317 3.208 6.818 5.566 9.802.595.754 1.191 1.483 1.756 2.174.567.692 1.102 1.344 1.585 1.952.983 1.238 1.685 2.216 1.987 2.911l1.376-.599zm6.629 5.501c-.297.123-1.141.48-2.239.7-1.104.221-2.406.29-3.628-.118l-.474 1.423c1.562.521 3.153.414 4.396.165 1.251-.25 2.209-.656 2.516-.782l-.571-1.388zm-5.354 1.294c0-.448.187-3.436-1.275-6.795l-1.376.6c1.321 3.032 1.151 5.715 1.151 6.195h1.5zm115.154 112.473c.825.441 2.958 1.52 5.068 2.589 2.124 1.077 4.221 2.143 5.005 2.574l.723-1.315c-.813-.446-2.941-1.528-5.05-2.597-2.124-1.076-4.233-2.142-5.038-2.574l-.708 1.323zm10.072 5.162c1.067.588 2.433 1.417 3.846 1.906 1.431.495 3.047.694 4.601-.103l-.684-1.335c-1.042.534-2.19.448-3.427.02-1.255-.435-2.462-1.168-3.612-1.801l-.724 1.313zm7.049-3.247c-.878-.439-2.519-1.508-4.728-2.957-2.184-1.432-4.874-3.203-7.796-4.995l-.784 1.278c2.899 1.779 5.571 3.537 7.758 4.972 2.163 1.418 3.901 2.555 4.879 3.044l.671-1.342zm-12.53-7.956a4.153 4.153 0 00-.386-.188 41.859 41.859 0 00-.624-.266c-.504-.209-1.182-.485-1.974-.803-1.585-.636-3.637-1.446-5.687-2.254-2.05-.808-4.098-1.614-5.679-2.24a290.71 290.71 0 01-2.557-1.027l-.18-.077-.053-.024-.015-.007-.687 1.334c.128.065.494.217.972.41.501.203 1.176.472 1.967.785 1.583.627 3.633 1.434 5.682 2.241a993.91 993.91 0 015.678 2.252c.791.317 1.461.589 1.956.795.247.103.447.188.595.254.166.073.223.103.219.101l.773-1.286zm13.928 13.006c.583-.298 1.02-.725 1.2-1.291.178-.563.056-1.117-.175-1.577-.449-.894-1.418-1.68-2.423-2.182l-.671 1.342c.851.425 1.506 1.02 1.753 1.513.117.232.111.372.086.45-.023.074-.108.233-.454.41l.684 1.335zm-44.946 90.843c3.842 2.449 6.21 3.478 9.34 5.048l.673-1.341c-3.176-1.592-5.448-2.576-9.206-4.972l-.807 1.265zm51.53 18.885c-.563-.986-1.57-2.144-2.609-3.176-1.047-1.038-2.183-2.005-3.049-2.601l-.851 1.235c.772.532 1.839 1.435 2.843 2.431 1.012 1.004 1.902 2.048 2.364 2.855l1.302-.744zm-1.14 3.281c-.685 1.444-2.219 2.898-4.149 2.898v1.5c2.71 0 4.67-1.997 5.504-3.756l-1.355-.642zm-4.149 2.898c.005 0-.035-.001-.145-.024a5.63 5.63 0 01-.399-.103 23.973 23.973 0 01-1.294-.432 109.245 109.245 0 01-4.089-1.603c-3.275-1.345-7.487-3.168-11.805-5.081-8.641-3.828-17.674-7.997-20.44-9.38l-.671 1.341c2.801 1.401 11.862 5.583 20.503 9.41 4.323 1.915 8.55 3.745 11.843 5.097 1.645.676 3.065 1.235 4.15 1.627.542.195 1.01.352 1.384.461.344.1.697.187.963.187v-1.5zm-24.957-14.6c1.279-1.262 3.206-2.554 5.362-3.606 2.154-1.052 4.485-1.838 6.554-2.122l-.204-1.486c-2.265.311-4.752 1.158-7.008 2.259-2.254 1.1-4.33 2.479-5.757 3.888l1.053 1.067zm-50.022-197.465c.432-3.904 1.121-6.719 3.69-10.728l-1.263-.809c-2.722 4.247-3.467 7.298-3.918 11.372l1.491.165zm12.246-19.767c.526.125.844.554.936 1.29.094.748-.093 1.596-.384 2.107l1.304.742c.455-.802.702-1.977.569-3.036-.135-1.072-.706-2.236-2.079-2.562l-.346 1.459zm.552 3.397c-1.174 2.065-2.437 2.794-3.87 4.075-1.458 1.302-2.811 2.984-3.811 6.733l1.449.387c.926-3.468 2.123-4.895 3.361-6.002 1.262-1.127 2.841-2.105 4.175-4.451l-1.304-.742zm-14.289 16.205c-.618 5.574.91 8.594 2.829 10.505.929.924 1.93 1.567 2.685 2.083.388.265.698.487.935.702.237.214.359.383.415.525l1.393-.557c-.175-.438-.478-.788-.801-1.08-.322-.292-.709-.564-1.096-.829-.797-.544-1.664-1.102-2.473-1.907-1.554-1.548-2.97-4.095-2.396-9.277l-1.491-.165zm52.611-54.87c.391 1.033-.012 2.282-.962 3.057l.948 1.162c1.359-1.108 2.075-3.01 1.417-4.75l-1.403.53zm-.96 3.056l-8.691 7.054.946 1.165 8.69-7.054-.945-1.165zm-7.87 8.301l10.771-5.633-.695-1.33-10.772 5.634.696 1.33zm10.772-5.634c.902-.475 2.013-.386 2.935.207l.811-1.262c-1.316-.846-3.003-1.03-4.444-.272l.698 1.327zm-104.24 69.444c2.704-7.154 9.759-12.001 17.26-11.119l.176-1.489c-8.273-.974-15.924 4.364-18.839 12.078l1.403.53zm48.744 64.03c5.62 1.171 10.777 1.523 16.555 2.043 5.786.52 12.245 1.213 20.551 3.059l.325-1.465c-8.396-1.866-14.928-2.565-20.741-3.088-5.821-.524-10.87-.868-16.385-2.017l-.305 1.468zm-13.946-61.591c1.99 3.339 2.898 8.539 3.004 13.604.107 5.069-.592 9.793-1.652 12.149l1.368.616c1.196-2.66 1.892-7.651 1.784-12.797-.108-5.15-1.025-10.665-3.216-14.34l-1.288.768zm-26.629-59.527c.546-2.956-.623-6.18-2.591-8.335l-1.108 1.011c1.707 1.87 2.671 4.634 2.224 7.05l1.475.274zm-2.591-8.335c-1.469-1.61-3.655-2.625-5.652-2.538-1.012.045-1.998.376-2.789 1.086-.793.711-1.331 1.748-1.544 3.095l1.481.235c.171-1.076.576-1.775 1.064-2.213.491-.44 1.126-.672 1.854-.704 1.485-.065 3.26.715 4.478 2.05l1.108-1.01zm-9.986 1.645c-.388 2.497.569 4.747 1.613 6.785 1.081 2.11 2.224 3.96 2.607 5.93l1.472-.285c-.435-2.245-1.748-4.384-2.744-6.328-1.033-2.017-1.774-3.887-1.466-5.871l-1.482-.23zm4.221 12.72c.309 1.54.212 2.81-.283 3.83-.49 1.011-1.421 1.879-2.987 2.522l.571 1.388c1.819-.749 3.078-1.837 3.765-3.255.684-1.407.754-3.037.404-4.78l-1.47.296zm1.973-33.69c9.526 9.055 20.333 14.324 31.36 12.329l-.267-1.476c-10.35 1.872-20.693-3.036-30.059-11.94l-1.034 1.087zm0 0c3.586 3.408 6.543 8.032 7.748 12.88 1.2 4.832.658 9.856-2.695 14.184l1.185.919c3.688-4.76 4.254-10.28 2.965-15.464-1.284-5.168-4.411-10.034-8.169-13.606l-1.034 1.087zm16.586 22.35c.888-.996 2.571-1.957 4.386-2.35 1.818-.394 3.575-.182 4.758.888L392.6 81.4c-1.685-1.523-4.018-1.688-6.081-1.241-2.065.447-4.051 1.542-5.189 2.817l1.12.998zm3.33 11.58c.077 3.49 2.233 5.748 4.978 6.967 2.719 1.209 6.09 1.447 8.901.935l-.269-1.476c-2.564.468-5.622.237-8.023-.829-2.374-1.055-4.027-2.878-4.088-5.63l-1.499.032zm13.872 7.903c.53-.091 1.766-.382 2.912-.805l-.52-1.408a17.59 17.59 0 01-2.647.735l.255 1.478zm-13.542-7.299c2.746 1.854 6.519 2.398 9.696 2.411a28.02 28.02 0 004.273-.304 16.159 16.159 0 001.54-.306c.411-.106.784-.23 1.046-.373l-.722-1.315c-.091.05-.314.136-.698.235-.369.095-.84.191-1.393.276a26.55 26.55 0 01-4.04.287c-3.077-.012-6.487-.55-8.863-2.154l-.839 1.243zM194.17 345.433h-6.821v1.5h6.821v-1.5zm1.75-61.04v59.303h1.5v-59.303h-1.5zm74.265 3.417c-1.928 10.51-3.71 20.272-4.913 26.707l1.475.276c1.203-6.439 2.986-16.205 4.913-26.712l-1.475-.271zM249.161 89.694c0 2.28-.219 4.303-1.704 5.773l1.055 1.066c1.961-1.941 2.149-4.549 2.149-6.839h-1.5zm-1.704 5.773c-.525.519-1.061.762-1.59.84-.54.08-1.122-.006-1.736-.228-1.244-.452-2.477-1.414-3.459-2.316l-1.015 1.104c1.016.935 2.429 2.065 3.963 2.622.776.281 1.615.428 2.466.302.863-.127 1.686-.527 2.425-1.257l-1.054-1.067zm-6.784-1.704c-1.736-1.599-3.358-2.83-5.185-3.653-1.835-.828-3.832-1.227-6.294-1.227v1.5c2.289 0 4.069.368 5.678 1.094 1.617.73 3.104 1.84 4.784 3.39l1.017-1.104zm-11.479-4.88c-4.778 0-8.76 1.674-12.243 4.88l1.016 1.103c3.225-2.968 6.85-4.483 11.227-4.483v-1.5zm-12.243 4.88c-.981.902-2.214 1.864-3.459 2.316-.613.222-1.196.308-1.736.228-.529-.078-1.065-.321-1.59-.84l-1.054 1.067c.739.73 1.563 1.13 2.425 1.257.851.126 1.691-.021 2.467-.302 1.533-.557 2.946-1.687 3.963-2.622l-1.016-1.104zm-6.784 1.704c-1.446-1.43-1.705-3.537-1.705-5.773h-1.5c0 2.253.23 4.94 2.149 6.84l1.056-1.067zM208.45 81.14c-1.333-4.432-6.549-6.62-10.419-4.24l.786 1.278c2.961-1.822 7.123-.175 8.197 3.394l1.436-.432zm-10.419-4.24c-3.536 2.176-4.923 7.136-3.116 10.847l1.349-.657c-1.476-3.03-.314-7.148 2.553-8.912l-.786-1.278zm-3.116 10.846c1.231 2.531 3.564 3.798 6.035 4.12 2.455.32 5.11-.277 7.155-1.532l-.785-1.279c-1.758 1.08-4.069 1.599-6.176 1.324-2.092-.273-3.919-1.312-4.88-3.289l-1.349.656zm55.632-6.854c1.032-3.432 5.173-4.613 8.259-2.714l.786-1.277c-3.744-2.305-9.107-1.01-10.481 3.559l1.436.432zm8.259-2.714c2.867 1.764 4.029 5.881 2.553 8.912l1.349.657c1.807-3.711.42-8.67-3.116-10.847l-.786 1.278zm2.553 8.912c-.961 1.977-2.788 3.016-4.879 3.289-2.108.275-4.418-.244-6.176-1.324l-.785 1.278c2.045 1.256 4.7 1.853 7.154 1.533 2.471-.322 4.805-1.589 6.035-4.12l-1.349-.656zm-52.877-5.734c0-1.302-.072-2.604-.151-3.886-.079-1.29-.164-2.555-.195-3.814-.061-2.517.097-4.947.934-7.299l-1.413-.503c-.926 2.603-1.084 5.245-1.02 7.838.031 1.295.119 2.594.197 3.87.078 1.28.148 2.542.148 3.794h1.5zm102.691 263.56h6.82v-1.5h-6.82v1.5zM198.729 206.789c-.177.874.068 1.678.71 2.273.601.558 1.488.874 2.52 1.006l.19-1.488c-.875-.112-1.41-.358-1.691-.618-.24-.223-.337-.49-.259-.875l-1.47-.298zm3.231 3.279c1.78.225 3.627-.034 5.383-.462 1.753-.427 3.475-1.039 4.982-1.546l-.479-1.422c-1.542.519-3.184 1.103-4.858 1.511-1.672.407-3.317.623-4.84.431l-.188 1.488zm10.363-2.007c2.068-.691 5.218-1.808 8.154-2.772l-.467-1.425c-2.913.956-6.161 2.106-8.162 2.774l.475 1.423zm12.384-5.614a58.25 58.25 0 00-4.708 1.421l.489 1.417a57.374 57.374 0 014.588-1.384l-.369-1.454zm-4.708 1.421c-5.456 1.883-11.18 4.608-16.375 7.416l.713 1.32c5.155-2.786 10.8-5.471 16.151-7.319l-.489-1.417zm-9.353 16.181c-.347.204-1.002.53-1.491.923-.519.418-1.047 1.057-.999 1.987l1.498-.079c-.012-.238.097-.462.441-.74.376-.302.811-.504 1.311-.798l-.76-1.293zm-2.49 2.911c.049.908.3 1.68.822 2.239.531.566 1.246.809 2.008.847 1.465.072 3.351-.601 5.362-1.603l-.67-1.343c-1.994.995-3.575 1.499-4.619 1.447-.492-.024-.793-.168-.986-.374-.2-.214-.381-.599-.419-1.294l-1.498.081zm-4.532-11.676c-.212.114-.937.581-1.403 1.307-.242.375-.441.863-.417 1.429.026.578.28 1.14.768 1.659l1.092-1.027c-.289-.309-.354-.542-.361-.697-.007-.167.049-.351.179-.553.277-.43.761-.747.855-.798l-.713-1.32zm-101.617-18.029c-.949.586-5.765 3.514-10.6 6.397a560.074 560.074 0 01-6.775 3.987c-1.971 1.136-3.38 1.911-3.826 2.089l.555 1.393c.574-.228 2.101-1.076 4.02-2.182a547.262 547.262 0 006.795-3.999c4.838-2.885 9.661-5.817 10.619-6.409l-.788-1.276zm3.986-8.529c-2.026 1.538-3.831 2.657-6.578 4.355l.789 1.276c2.739-1.693 4.604-2.848 6.697-4.437l-.908-1.194zm-6.578 4.356c-.926.573-1.642 1.475-1.774 2.475a2.295 2.295 0 00.317 1.52c.29.474.75.847 1.34 1.113l.616-1.367c-.378-.171-.577-.366-.678-.531a.796.796 0 01-.108-.539c.057-.43.412-.985 1.077-1.396l-.79-1.275zm11.483 2.188c2.787-1.867 6.159-3.268 9.654-4.594 3.465-1.314 7.073-2.56 10.199-4.099l-.662-1.346c-3.042 1.498-6.539 2.704-10.069 4.043-3.5 1.327-7.014 2.779-9.957 4.75l.835 1.246zm54.657-25.652c2.85-1.439 7.281-3.794 11.588-5.408 2.152-.807 4.235-1.413 6.045-1.633 1.829-.222 3.25-.033 4.195.599l.834-1.247c-1.39-.93-3.251-1.079-5.21-.841-1.979.24-4.189.892-6.391 1.718-4.404 1.65-8.93 4.056-11.737 5.473l.676 1.339zm21.828-6.442c2.489 1.665 3.601 4.099 3.933 6.842.334 2.767-.134 5.802-.78 8.546l1.46.344c.659-2.799 1.175-6.039.809-9.07-.369-3.054-1.644-5.94-4.588-7.909l-.834 1.247zm3.153 15.389c-1.939 8.288-4.748 16.397-7.346 24.565l1.43.455c2.582-8.118 5.42-16.315 7.377-24.678l-1.461-.342zm-7.346 24.565c-2.616 8.222-5.585 16.95-4.721 25.926l1.493-.144c-.829-8.609 2.014-17.02 4.658-25.327l-1.43-.455zm-4.721 25.926c1.294 13.444 12.552 21.815 21.523 21.815v-1.5c-8.18 0-18.809-7.766-20.03-20.459l-1.493.144zm72.978-1.908c2.244-1.031 5.042-.805 7.294.335 2.251 1.139 3.803 3.103 3.803 5.426h1.5c0-3.057-2.041-5.456-4.626-6.765-2.584-1.308-5.866-1.613-8.597-.359l.626 1.363zm11.097 5.761v18.288h1.5v-18.288h-1.5zm0 18.288c0 1.343-.04 10.973-.08 20.271a120783.51 120783.51 0 01-.073 16.712l-.005 1.142-.001.3v.077l-.001.02v.006l.75.004.75.003v-.007l.001-.019v-.077l.001-.3.005-1.142.018-4.097.055-12.615c.04-9.295.08-18.931.08-20.278h-1.5zm-46.532-.326c7.899 0 13.545-4.613 18.78-9.786 2.649-2.617 5.156-5.339 7.878-7.829 2.705-2.474 5.549-4.647 8.773-6.107l-.618-1.366c-3.428 1.551-6.406 3.841-9.167 6.366-2.743 2.51-5.345 5.325-7.92 7.869-5.212 5.15-10.476 9.353-17.726 9.353v1.5zm6.612-151.2c1.758 1.2 3.975 1.618 6.118 1.494 2.145-.125 4.289-.798 5.947-1.87l-.814-1.26c-1.421.92-3.31 1.521-5.22 1.632-1.913.112-3.774-.272-5.186-1.235l-.845 1.239zm-5.92-17.586c.34-.531 1.18-.958 2.204-.979.998-.02 1.955.353 2.504 1.137l1.229-.861c-.909-1.298-2.409-1.803-3.764-1.776-1.328.028-2.736.576-3.436 1.67l1.263.809zm24.393-5.935c-.841-.053-1.8-.194-2.904-.31-1.068-.111-2.224-.192-3.314-.092-1.088.099-2.177.384-3.06 1.06-.904.692-1.512 1.731-1.736 3.173l1.483.23c.174-1.121.614-1.79 1.165-2.212.571-.438 1.345-.672 2.285-.758.938-.085 1.974-.018 3.021.092 1.012.106 2.09.26 2.967.314l.093-1.498zm-15.496 3.831c-.223-1.442-.831-2.481-1.735-3.173-.884-.676-1.973-.961-3.06-1.06-1.09-.1-2.246-.019-3.314.093-1.104.115-2.064.256-2.904.309l.093 1.497c.877-.055 1.955-.208 2.967-.314 1.047-.11 2.083-.177 3.021-.092.94.086 1.714.32 2.285.758.551.422.991 1.09 1.165 2.212l1.482-.23zm14.635 1.295c-.7-1.094-2.108-1.642-3.437-1.67-1.355-.027-2.854.478-3.763 1.776l1.228.86c.549-.783 1.507-1.156 2.504-1.136 1.025.021 1.865.448 2.205.979l1.263-.809zm-12.011 256.059c-.594 1.724-.348 3.282.402 4.606.735 1.298 1.935 2.344 3.224 3.148l.794-1.272c-1.168-.729-2.145-1.613-2.713-2.615-.552-.975-.734-2.087-.289-3.378l-1.418-.489zm34.601 23.988c.994.477 1.985.991 2.992 1.516 1.003.522 2.022 1.054 3.055 1.555 2.065 1.003 4.222 1.898 6.522 2.379l.306-1.469c-2.124-.443-4.153-1.279-6.174-2.259-1.01-.49-2.009-1.012-3.016-1.537a100.438 100.438 0 00-3.037-1.537l-.648 1.352zm12.569 5.45c2.07.43 5.012.422 7.701-.636 2.722-1.07 5.184-3.22 6.161-7.018l-1.452-.374c-.842 3.268-2.919 5.077-5.258 5.996-2.371.933-5.011.945-6.846.563l-.306 1.469zm13.878-7.729c.373-2.479-.733-4.54-2.207-6.213-1.462-1.661-3.395-3.057-4.843-4.186l-.923 1.182c1.518 1.185 3.297 2.469 4.641 3.995 1.332 1.512 2.128 3.142 1.848 4.998l1.484.224zm-7.05-10.399c-1.949-1.521-3.984-2.969-6.022-4.403-2.042-1.437-4.083-2.859-6.067-4.343-3.968-2.967-7.658-6.148-10.533-10.074l-1.21.887c3.005 4.102 6.832 7.387 10.844 10.388 2.006 1.5 4.07 2.938 6.103 4.369 2.037 1.433 4.045 2.862 5.962 4.358l.923-1.182zm-50.372-3.556c9.779 6.109 20.636 11.269 30.975 16.234l.649-1.352c-10.358-4.975-21.135-10.098-30.83-16.154l-.794 1.272zm-2.666-9.902c.913 2.104 2.397 3.737 3.96 4.731l.805-1.266c-1.312-.834-2.596-2.234-3.389-4.062l-1.376.597zm3.961 4.732c5.127 3.243 10.544 5.949 15.95 8.56l.652-1.351c-5.401-2.608-10.751-5.283-15.8-8.477l-.802 1.268zm15.95 8.56c2.615 1.26 5.163 2.651 7.727 4.056 2.558 1.402 5.133 2.817 7.777 4.106l.658-1.349c-2.607-1.27-5.15-2.667-7.715-4.072-2.559-1.403-5.14-2.813-7.796-4.092l-.651 1.351zm15.505 8.162a103.32 103.32 0 013.037 1.562c1.019.538 2.054 1.086 3.103 1.602 2.097 1.031 4.287 1.953 6.624 2.449l.311-1.467c-2.16-.459-4.221-1.319-6.273-2.328-1.026-.505-2.041-1.042-3.064-1.582a104.153 104.153 0 00-3.082-1.585l-.656 1.349zm12.765 5.613c1.707.36 3.976.449 6.131.066 2.14-.38 4.296-1.248 5.622-2.922l-1.176-.932c-.999 1.261-2.732 2.026-4.708 2.377-1.961.348-4.036.264-5.56-.057l-.309 1.468zm-43.376-39.278c2.826 2.546 6.802 4.117 10.986 4.786 4.189.669 8.653.446 12.506-.662l-.415-1.442c-3.624 1.043-7.865 1.26-11.855.622-3.995-.638-7.671-2.123-10.218-4.418l-1.004 1.114zm27.772 18.927a.863.863 0 01-.862.864v1.5a2.362 2.362 0 002.362-2.364h-1.5zm-.862.864a.862.862 0 01-.861-.864h-1.5a2.362 2.362 0 002.361 2.364v-1.5zm-.861-.864c0-.478.386-.864.861-.864v-1.5a2.362 2.362 0 00-2.361 2.364h1.5zm.861-.864c.476 0 .862.386.862.864h1.5a2.362 2.362 0 00-2.362-2.364v1.5zm7.31 5.167a.863.863 0 01-.862.864v1.5a2.363 2.363 0 002.362-2.364h-1.5zm-.862.864a.863.863 0 01-.862-.864h-1.5a2.363 2.363 0 002.362 2.364v-1.5zm-.862-.864c0-.477.387-.863.862-.863v-1.5a2.363 2.363 0 00-2.362 2.363h1.5zm.862-.863c.475 0 .862.386.862.863h1.5a2.363 2.363 0 00-2.362-2.363v1.5zm-12.034-8.819a.863.863 0 01-.862.864v1.5a2.362 2.362 0 002.362-2.364h-1.5zm-.862.864a.862.862 0 01-.861-.864h-1.5a2.362 2.362 0 002.361 2.364v-1.5zm-.861-.864c0-.478.386-.864.861-.864v-1.5a2.362 2.362 0 00-2.361 2.364h1.5zm.861-.864c.476 0 .862.386.862.864h1.5a2.362 2.362 0 00-2.362-2.364v1.5zm19.981-20.428c-.026 1.824.695 3.227 1.821 4.25 1.104 1.003 2.571 1.622 4.046 1.983l.357-1.457c-1.338-.328-2.542-.861-3.394-1.636-.83-.754-1.35-1.753-1.331-3.119l-1.499-.021zm5.481.917c5.884 1.478 11.875 2.356 17.826 3.146l.197-1.487c-5.946-.789-11.863-1.658-17.657-3.114l-.366 1.455zm17.827 3.146c2.877.379 5.732.905 8.606 1.438 2.869.532 5.757 1.072 8.672 1.469l.203-1.486c-2.873-.392-5.725-.924-8.601-1.458-2.87-.532-5.762-1.065-8.685-1.45l-.195 1.487zm17.278 2.908c1.112.151 2.234.34 3.374.534 1.136.193 2.29.39 3.447.552 2.315.324 4.684.515 7.058.256l-.163-1.491c-2.195.24-4.422.067-6.686-.251-1.133-.158-2.264-.351-3.405-.545a104.928 104.928 0 00-3.423-.542l-.202 1.487zm13.88 1.342c1.734-.192 3.917-.817 5.845-1.854 1.914-1.029 3.691-2.529 4.427-4.533l-1.408-.517c-.554 1.509-1.962 2.778-3.73 3.729-1.754.944-3.751 1.513-5.299 1.684l.165 1.491zm-21.182-14.455a.862.862 0 01-.549 1.09l.469 1.425a2.363 2.363 0 001.505-2.984l-1.425.469zm-.549 1.09a.863.863 0 01-1.088-.551l-1.425.468a2.363 2.363 0 002.982 1.508l-.469-1.425zm-1.088-.551a.862.862 0 01.549-1.09l-.469-1.425a2.362 2.362 0 00-1.505 2.983l1.425-.468zm.549-1.09a.862.862 0 011.088.551l1.425-.469a2.363 2.363 0 00-2.982-1.507l.469 1.425zm8.557 2.624a.861.861 0 01-.548 1.089l.468 1.425a2.362 2.362 0 001.505-2.983l-1.425.469zm-.548 1.089a.862.862 0 01-1.089-.551l-1.425.469a2.363 2.363 0 002.982 1.507l-.468-1.425zm-1.089-.551a.862.862 0 01.549-1.089l-.469-1.425a2.362 2.362 0 00-1.505 2.983l1.425-.469zm.549-1.089a.862.862 0 011.088.551l1.425-.469a2.362 2.362 0 00-2.982-1.507l.469 1.425zm-14.187-4.617a.863.863 0 01-.549 1.09l.469 1.425a2.363 2.363 0 001.505-2.983l-1.425.468zm-.549 1.09a.863.863 0 01-1.089-.551l-1.425.469a2.364 2.364 0 002.983 1.507l-.469-1.425zm-1.089-.551a.864.864 0 01.549-1.09l-.469-1.425a2.364 2.364 0 00-1.505 2.984l1.425-.469zm.549-1.09a.865.865 0 011.089.551l1.425-.468a2.364 2.364 0 00-2.983-1.508l.469 1.425zm-63.117-134.932c0-13.761 5.131-20.037 9.737-23.111l-.833-1.248c-5.065 3.381-10.404 10.149-10.404 24.359h1.5zm-113.741 4.95c3.776 2.228 6.76 6.38 7.725 10.609l1.462-.333c-1.054-4.625-4.288-9.126-8.424-11.568l-.763 1.292zm-18.934 10.652c-7.442 4.74-16.248 7.878-24.63 10.942l.515 1.409c8.339-3.049 17.313-6.24 24.92-11.085l-.805-1.266zm-24.629 10.941c-1.802.656-3.618 1.255-5.466 1.702l.353 1.458c1.924-.466 3.798-1.085 5.626-1.75l-.513-1.41zm-5.465 1.702c-.25.06-.61.102-1.079.152-.447.048-.97.102-1.47.19-.495.088-1.023.218-1.471.444-.452.227-.91.598-1.09 1.199l1.436.433c.017-.059.077-.166.328-.292.254-.128.614-.228 1.058-.307.44-.077.907-.126 1.37-.175.439-.048.906-.098 1.269-.186l-.351-1.458zm-5.11 1.985c-.253.839-.281 1.618.004 2.287.29.683.85 1.122 1.502 1.384 1.246.501 3.037.446 4.887.162 3.764-.578 8.404-2.212 11.139-3.442l-.616-1.368c-2.658 1.196-7.163 2.777-10.75 3.327-1.825.28-3.26.267-4.1-.071-.391-.157-.588-.358-.682-.579-.1-.235-.141-.627.052-1.267l-1.437-.433zm142.078 4.76l-.485-14.659-1.5.05.485 14.659 1.5-.05zm-.486-14.668a1.2 1.2 0 01.802-1.185l-.512-1.41a2.698 2.698 0 00-1.788 2.662l1.498-.067zm.802-1.185l14.077-5.104-.512-1.41-14.077 5.104.512 1.41zm14.077-5.104a1.218 1.218 0 011.631 1.103l1.499-.062a2.719 2.719 0 00-3.642-2.451l.512 1.41zm1.631 1.096l.474 15.017 1.499-.048-.474-15.017-1.499.048zm-10.451 6.141l4.164-1.51-.511-1.41-4.165 1.51.512 1.41zM317.706 5.126h-.886v1.5h.886v-1.5zm-.886 0c-.93 0-1.689-.76-1.689-1.688h-1.5a3.193 3.193 0 003.189 3.188v-1.5zm-1.689-1.688c0-.925.76-1.688 1.689-1.688V.25a3.195 3.195 0 00-3.189 3.188h1.5zm1.689-1.688h.886V.25h-.886v1.5zm.886 0c.926 0 1.689.76 1.689 1.688h1.5A3.195 3.195 0 00317.706.25v1.5zm1.689 1.688c0 .924-.764 1.688-1.689 1.688v1.5a3.199 3.199 0 003.189-3.188h-1.5zm25.589 151.612c-2.314-1.764-4.034-4.01-5.694-6.417-1.643-2.381-3.251-4.959-5.285-7.211l-1.113 1.006c1.947 2.155 3.467 4.598 5.163 7.057 1.678 2.432 3.508 4.844 6.02 6.758l.909-1.193zm-10.979-13.627c-1.996-2.212-4.567-3.933-7.638-4.466l-.257 1.478c2.661.462 4.95 1.963 6.782 3.993l1.113-1.005zm-7.659-4.469a188.872 188.872 0 01-7.516-1.267l-.275 1.475c2.377.442 4.948.897 7.577 1.276l.214-1.484zm-7.515-1.267c-.64-.12-1.189-.258-1.572-.498a1.072 1.072 0 01-.375-.367c-.074-.13-.131-.313-.124-.589l-1.499-.039c-.014.517.095.977.321 1.372.225.393.54.68.879.893.652.41 1.464.585 2.093.703l.277-1.475zm43.839 10.169c-1.216 3.406-3.659 6.91-6.801 8.94-3.1 2.003-6.878 2.58-10.962.202l-.755 1.297c4.631 2.696 9.017 2.032 12.531-.239 3.473-2.243 6.096-6.044 7.4-9.696l-1.413-.504zM294.884 43.862c-.338-1.637-1.434-2.896-2.753-3.727-1.316-.829-2.913-1.271-4.383-1.247l.025 1.5c1.173-.02 2.484.34 3.559 1.017 1.072.675 1.848 1.625 2.083 2.76l1.469-.303zm-7.136-4.974c-3.713.061-5.966 3.014-6.458 6.267l1.483.225c.421-2.784 2.249-4.947 5-4.992l-.025-1.5zm-6.458 6.268c-.472 3.134.149 6.784 1.865 9.614l1.283-.778c-1.521-2.507-2.089-5.799-1.665-8.613l-1.483-.223zm1.866 9.614c1.585 2.609 3.847 3.743 6.161 3.628 2.272-.112 4.465-1.42 6.005-3.423l-1.189-.914c-1.329 1.729-3.143 2.753-4.89 2.84-1.704.083-3.473-.718-4.806-2.91l-1.281.78zm10.821-.246c.019 2.454.822 4.467 1.904 6.287 1.053 1.768 2.46 3.483 3.613 5.145l1.233-.855c-1.264-1.821-2.53-3.332-3.556-5.057-.996-1.674-1.677-3.425-1.694-5.532l-1.5.012zm-12.77 55.271c-2.917 4.109-4.952 9.099-6.255 13.034a71.34 71.34 0 00-1.437 4.919c-.156.614-.27 1.105-.346 1.444-.038.169-.066.301-.085.39l-.022.103-.005.027-.002.008v.002l.735.148.735.147.001-.001.001-.005.004-.024.02-.094a50.26 50.26 0 01.418-1.777 70.068 70.068 0 011.406-4.815c1.284-3.874 3.263-8.704 6.055-12.637l-1.223-.869zm56.454-81.294c0 4.951-.738 10.267-1.247 15.439l1.492.147c.501-5.086 1.255-10.537 1.255-15.586h-1.5zm-42.767 15.427c-.592-5.188-1.518-10.45-1.518-15.427h-1.5c0 5.09.951 10.537 1.528 15.597l1.49-.17zm20.015 60.815a.935.935 0 01.944-1.032v-1.5c-1.45 0-2.594 1.242-2.435 2.695l1.491-.163zm20.398.122c.132-1.442-1.029-2.654-2.463-2.654v1.5c.587 0 1.018.49.969 1.018l1.494.136zm2.59-60.711c.215-1.131.973-2.077 2.031-2.75 1.061-.675 2.364-1.035 3.537-1.015l.025-1.5c-1.47-.024-3.061.418-4.367 1.249-1.308.832-2.387 2.095-2.7 3.735l1.474.28zm5.569-3.765c2.757.045 4.627 2.217 5.09 5.002l1.48-.245c-.54-3.252-2.838-6.196-6.546-6.257l-.024 1.5zm5.09 5.003c.47 2.815-.048 6.104-1.529 8.608l1.291.764c1.676-2.833 2.241-6.485 1.717-9.619l-1.479.247zM347.027 54c-1.294 2.186-3.044 2.986-4.749 2.902-1.749-.086-3.582-1.112-4.941-2.845l-1.18.926c1.568 2 3.776 3.305 6.048 3.417 2.316.114 4.565-1.021 6.113-3.636L347.027 54zm-11.03.526c.016 2.106-.637 3.855-1.605 5.527-.998 1.725-2.239 3.234-3.476 5.057l1.241.842c1.127-1.661 2.509-3.377 3.533-5.147 1.055-1.822 1.826-3.836 1.807-6.29l-1.5.01zm16.736 59.376c10.589 12.43 13.338 22.433 9.937 31.954l1.413.504c3.66-10.247.545-20.809-10.208-33.431l-1.142.973zM300.879 83.72c4.167 2.897 9.71 4.514 15.387 4.722 5.679.208 11.556-.991 16.397-3.798l-.753-1.297c-4.555 2.64-10.141 3.795-15.589 3.596-5.451-.2-10.7-1.753-14.586-4.454l-.856 1.231zm-7.503-55.225l-.102-12.554-1.5.012.102 12.554 1.5-.012zm-.102-12.554a9.226 9.226 0 019.245-9.315v-1.5a10.726 10.726 0 00-10.745 10.827l1.5-.012zm34.885-9.315c5.153 0 9.363 4.176 9.404 9.327l1.5-.012c-.047-5.975-4.928-10.815-10.904-10.815v1.5zm9.404 9.327l.098 12.554 1.5-.012-.098-12.554-1.5.012zM303.91 35.395c2.023-1.925 5.464-2.585 7.642-.86l.931-1.176c-2.948-2.335-7.232-1.31-9.607.95l1.034 1.086zm7.641-.86c2.005 1.59 1.878 4.186 1.092 6.793l1.436.433c.802-2.658 1.216-6.17-1.595-8.401l-.933 1.175zm1.092 6.792c-.548 1.81-1.249 3.565-1.954 5.366l1.397.546c.697-1.78 1.424-3.598 1.993-5.477l-1.436-.435zm-1.954 5.367c-.154.395-.348.814-.561 1.276a25.32 25.32 0 00-.625 1.442c-.381.99-.682 2.124-.471 3.274l1.475-.27c-.135-.738.045-1.555.396-2.464.173-.45.377-.898.588-1.355.206-.448.422-.912.596-1.359l-1.398-.544zm-1.658 5.99c.284 1.567 1.475 2.287 2.649 2.609 1.147.314 2.466.309 3.334.326l.029-1.5c-.941-.018-2.041-.02-2.966-.273-.898-.246-1.432-.668-1.57-1.429l-1.476.267zm5.982 2.935c.897.019 2.336.11 3.632-.102 1.287-.211 2.72-.767 3.285-2.267l-1.404-.53c-.273.726-.994 1.132-2.123 1.316-1.121.184-2.362.104-3.359.083l-.031 1.5zm6.917-2.37c.416-1.11-.011-2.256-.397-3.068l-1.355.644c.377.793.526 1.42.347 1.897l1.405.526zm-18.145-11.653c.45-.722 1.371-1.146 2.342-1.17.999-.025 1.719.368 1.956.874l1.358-.636c-.597-1.276-2.062-1.77-3.351-1.738-1.317.033-2.786.607-3.577 1.876l1.272.794zm18.846 0c.451-.722 1.371-1.146 2.342-1.17.999-.025 1.719.368 1.956.874l1.358-.636c-.596-1.276-2.062-1.77-3.351-1.738-1.317.033-2.786.607-3.577 1.876l1.272.794zm6.332-12.345c1.545-.004 3.131 1.036 4.2 2.405l1.182-.922c-1.228-1.574-3.205-2.988-5.385-2.983l.003 1.5zm4.2 2.405c.653.837.925 1.85 1.006 2.989.083 1.158-.035 2.346-.104 3.56l1.498.085c.064-1.127.194-2.468.103-3.752-.093-1.304-.417-2.647-1.321-3.804l-1.182.922zm.902 6.548c-.21 3.669-.283 7.352-.839 10.94l1.482.229c.571-3.682.648-7.49.855-11.083l-1.498-.086zm-.839 10.938c-.475 3.045-1.346 6.099-3.487 8.101l1.024 1.096c2.533-2.369 3.462-5.867 3.945-8.965l-1.482-.232zm-3.487 8.1c-2.067 1.929-4.289 1.604-7.204.876l-.363 1.455c2.903.726 5.887 1.288 8.591-1.234l-1.024-1.097zm-7.204.876c-3.961-.989-8.048-.91-11.984-.329l.218 1.484c3.816-.563 7.693-.626 11.403.3l.363-1.455zm-11.984-.329c-.847.124-1.717.306-2.525.454-.825.152-1.611.275-2.37.307-1.493.064-2.841-.224-4.066-1.351l-1.016 1.104c1.603 1.475 3.386 1.82 5.146 1.746.867-.037 1.738-.176 2.578-.33.857-.158 1.659-.327 2.471-.446l-.218-1.484zm-8.961-.59c-2.178-2.006-3.1-5.064-3.622-8.108l-1.479.254c.533 3.1 1.518 6.593 4.085 8.958l1.016-1.104zm-3.622-8.107c-.613-3.583-.747-7.267-1.016-10.94l-1.496.11c.263 3.598.404 7.405 1.033 11.082l1.479-.252zm-1.016-10.938c-.087-1.215-.224-2.403-.16-3.56.063-1.14.319-2.15.957-2.983l-1.192-.911c-.888 1.161-1.19 2.507-1.263 3.81-.071 1.284.081 2.626.162 3.751l1.496-.107zm.797-6.544c1.005-1.318 2.86-2.36 4.451-2.36v-1.5c-2.134 0-4.404 1.325-5.643 2.95l1.192.91zm11.382 32.205c4.466 1.691 9.615 1.906 14.063-.342l-.677-1.34c-3.987 2.016-8.683 1.859-12.855.28l-.531 1.402zm9.662 43.963c-.024 0-.062-.009-.102-.054a.304.304 0 01-.076-.208h-1.5c0 .908.693 1.762 1.678 1.762v-1.5zm-.178-.262v-.759h-1.5v.759h1.5zm0-.759c0-.091.034-.163.076-.208.04-.045.078-.054.102-.054v-1.5c-.985 0-1.678.854-1.678 1.762h1.5zm.178-.262c.025 0 .062.009.103.054a.308.308 0 01.075.208h1.5c0-.908-.692-1.762-1.678-1.762v1.5zm.178.262v.759h1.5v-.759h-1.5zm0 .754a.316.316 0 01-.078.213c-.042.046-.078.054-.1.054v1.5c.984 0 1.672-.855 1.678-1.758l-1.5-.009zm.896 19.719c-.654-.086-1.219-.195-1.619-.418a1.096 1.096 0 01-.401-.354c-.083-.13-.151-.314-.159-.596l-1.499.04c.014.522.148.98.396 1.367.247.383.58.657.933.853.68.379 1.51.511 2.155.595l.194-1.487zm-2.179-1.37c-.011-.378.098-.491.193-.562.163-.122.449-.215.942-.303l-.264-1.477c-.494.089-1.101.224-1.576.579-.544.406-.818 1.018-.794 1.808l1.499-.045zm1.137-.866c1.644-.298 3.308-.107 5.141-.012l.078-1.498c-1.701-.088-3.62-.305-5.487.035l.268 1.475zm15.324-1.098a1.74 1.74 0 00-.335-.4 4.404 4.404 0 00-.387-.309 12.401 12.401 0 00-.928-.591c-.601-.353-1.37-.759-1.565-.87l-.745 1.302c.343.196.893.476 1.551.862.307.18.592.358.811.515.11.079.193.146.251.199.066.06.064.072.044.036l1.303-.744zm-3.214-2.17c-2.776-1.593-6.524-3.77-9.227-5.962l-.945 1.165c2.813 2.281 6.669 4.517 9.425 6.098l.747-1.301zm-9.224-5.96c-.52-.426-1.035-.978-1.249-1.492-.101-.243-.115-.43-.08-.575.034-.137.132-.33.437-.552l-.883-1.212c-.529.385-.877.859-1.011 1.409-.132.542-.033 1.062.152 1.506.358.86 1.105 1.603 1.684 2.077l.95-1.161zm-.89-2.62c.271-.199.704-.207 1.333-.029l.407-1.444c-.678-.191-1.746-.383-2.627.263l.887 1.21zm1.33-.03c.657.188 1.279.51 1.926.899.602.362 1.339.858 2.008 1.235l.738-1.305c-.678-.384-1.239-.774-1.973-1.216-.689-.414-1.442-.813-2.286-1.055l-.413 1.442zm16.234 8.936c2.904 2.091 4.268 5.761 5.361 9.306l1.433-.442c-1.08-3.505-2.555-7.66-5.917-10.082l-.877 1.218zm5.361 9.305c4.298 13.967 5.626 28.62 5.803 43.199l1.5-.019c-.178-14.648-1.512-29.461-5.87-43.621l-1.433.441zm5.803 43.198a584.6 584.6 0 01.043 6.35l1.5-.002a587.193 587.193 0 00-.043-6.365l-1.5.017zm-283.24-50.554v5.424h1.5v-5.424h-1.5zm0 10.848v5.424h1.5v-5.424h-1.5zm-1.965-3.462h-5.427v1.5h5.427v-1.5zm10.856 0h-5.428v1.5H75.2v-1.5zm19.337-98.122v5.424h1.5v-5.424h-1.5zm0 10.848v5.424h1.5v-5.424h-1.5zm-1.964-3.462h-5.427v1.5h5.427v-1.5zm10.856 0h-5.428v1.5h5.428v-1.5zm383.993 112.122v5.424h1.5v-5.424h-1.5zm0 10.848v5.424h1.5v-5.424h-1.5zm-1.964-3.462h-5.428v1.5h5.428v-1.5zm10.856 0h-5.428v1.5h5.428v-1.5zM419.53 309.143c-1.31 2.166-2.436 4.386-2.649 6.859-.217 2.507.508 5.169 2.68 8.215l1.222-.87c-2.013-2.824-2.588-5.139-2.408-7.216.182-2.11 1.149-4.08 2.439-6.211l-1.284-.777zm14.854 40.359c.628 1.109.829 2.047.768 2.817-.061.764-.384 1.428-.923 1.991-1.102 1.154-3.11 1.882-5.404 1.942l.039 1.499c2.521-.066 4.976-.861 6.45-2.405.749-.784 1.242-1.763 1.333-2.907.091-1.138-.22-2.374-.958-3.677l-1.305.74zm-5.56 6.75c-4.276.117-7.896-2.451-11.338-5.167l-.929 1.178c3.401 2.683 7.422 5.623 12.308 5.488l-.041-1.499zm-11.338-5.167c-6.9-5.444-13.339-11.61-19.619-17.817l-1.054 1.067c6.285 6.212 12.774 12.429 19.744 17.928l.929-1.178zm-19.62-17.817c-2.054-2.024-4.138-4.311-4.874-6.923l-1.444.407c.857 3.039 3.227 5.576 5.266 7.584l1.052-1.068zm24.709-5.751c-2.019 2.378-5.778 3.345-9.862 3.678-2.013.165-4.048.172-5.896.143-1.828-.027-3.517-.091-4.76-.063l.035 1.5c1.205-.028 2.817.035 4.702.063 1.864.029 3.955.023 6.041-.147 4.112-.336 8.44-1.324 10.884-4.204l-1.144-.97zm-383.93 12.541c-7.001-4.676-11.021-14.033-7.725-21.932l-1.384-.578c-3.636 8.713.827 18.782 8.276 23.757l.834-1.247zm65.135 6.125v-.75H57.025v1.5h46.755v-.75zm-46.755-.75c-6.404 0-13.415-2.063-18.38-5.375l-.832 1.247c5.227 3.488 12.53 5.628 19.212 5.628v-1.5zM29.48 317.864c.298 8.315 4.844 14.334 10.74 17.648 5.872 3.302 13.13 3.948 18.934 1.497l-.583-1.382c-5.327 2.249-12.098 1.68-17.616-1.422-5.494-3.089-9.699-8.661-9.976-16.395l-1.5.054zm29.675 19.145c4.089-1.729 7.245-5.092 9.673-8.917 2.43-3.83 4.169-8.182 5.399-11.98l-1.427-.463c-1.21 3.737-2.902 7.957-5.239 11.639-2.34 3.686-5.288 6.774-8.99 8.339l.584 1.382zm15.071-20.897c1.032-3.18 1.858-6.841 2.666-10.719.811-3.891 1.603-7.997 2.574-12.126 1.943-8.261 4.57-16.469 9.345-22.835l-1.2-.9c-4.969 6.626-7.653 15.089-9.605 23.392-.977 4.153-1.777 8.301-2.582 12.163-.808 3.875-1.62 7.466-2.624 10.562l1.426.463zm14.585-45.68c9.614-12.818 20.584-17.056 26.133-19.368l-.577-1.385c-5.585 2.327-16.884 6.691-26.756 19.853l1.2.9zm25.845-20.061l-.384.645.002.001.007.004.027.016.112.068a89.368 89.368 0 012.067 1.306c1.389.905 3.335 2.217 5.554 3.847 4.445 3.264 9.962 7.78 14.317 12.823l1.135-.981c-4.46-5.164-10.078-9.757-14.564-13.051a121.974 121.974 0 00-5.624-3.895 97.233 97.233 0 00-2.106-1.331l-.118-.071-.03-.019-.008-.004-.002-.002h-.001l-.384.644zm21.702 18.71c4.367 5.057 7.156 9.533 8.85 12.735a43.19 43.19 0 011.78 3.761 24.893 24.893 0 01.476 1.255l.02.061.004.013.001.003.716-.225c.716-.223.715-.223.715-.224v-.002l-.002-.007-.007-.02-.025-.076c-.022-.065-.054-.16-.099-.283a24.747 24.747 0 00-.411-1.064 44.87 44.87 0 00-1.842-3.894c-1.742-3.293-4.593-7.864-9.041-13.014l-1.135.981zm21.326-31.567c3.97 4.903 7.752 8.769 11.072 12.033 3.335 3.279 6.157 5.908 8.279 8.394 2.112 2.475 3.451 4.724 3.878 7.196.425 2.463-.038 5.259-1.755 8.86l1.354.646c1.801-3.777 2.373-6.895 1.879-9.761-.493-2.856-2.028-5.351-4.215-7.915-2.178-2.552-5.082-5.258-8.369-8.49-3.302-3.246-7.039-7.067-10.957-11.907l-1.166.944zm21.474 36.484c-2.91 6.106-10.534 9.024-17.174 7.257l-.386 1.45c7.225 1.923 15.645-1.203 18.914-8.062l-1.354-.645zm-46.61-35.535c-.294-4.628.19-9.246.653-13.945.462-4.676.902-9.428.476-14.213l-1.494.133c.412 4.625-.012 9.243-.474 13.933-.461 4.668-.961 9.414-.658 14.187l1.497-.095zm1.129-28.157c-.396-4.524-1.541-8.329-4.295-12.16l-1.218.876c2.565 3.569 3.641 7.101 4.019 11.415l1.494-.131zm-39.927 0c-.42 4.79.02 9.544.48 14.22.462 4.698.944 9.314.65 13.937l1.497.095c.303-4.767-.195-9.51-.654-14.179-.462-4.69-.885-9.311-.478-13.942l-1.495-.131zm-28.308 70.95c-6.638 1.776-14.262-1.152-17.172-7.258l-1.354.645c3.268 6.858 11.688 9.996 18.914 8.062l-.388-1.449zm.736-38.128c6.905-7.219 11.509-15.851 16.502-24.139 5.012-8.319 10.445-16.348 19.045-22.614l-.883-1.212c-8.855 6.451-14.414 14.7-19.447 23.052-5.05 8.383-9.543 16.812-16.3 23.876l1.083 1.037zm58.802-47.345c7.294 5.303 11.503 10.814 15.871 17.465 4.369 6.655 8.915 14.485 16.833 24.266l1.166-.944c-7.856-9.704-12.335-17.428-16.746-24.145-4.412-6.72-8.739-12.4-16.241-17.856l-.883 1.214zm51.548 93.29l-2.377 2.579 1.103 1.016 2.377-2.579-1.103-1.016zm4.153 6.339l-3.839.537.208 1.485 3.839-.536-.208-1.486zm-9.939-5.07l.218-3.863-1.498-.084-.218 3.863 1.498.084zm-45.027-73.085c0 .938-.548 1.866-1.596 2.592-1.046.724-2.531 1.195-4.207 1.195v1.5c1.943 0 3.734-.544 5.06-1.462 1.324-.916 2.243-2.256 2.243-3.825h-1.5zm-5.803 3.787c-1.677 0-3.162-.471-4.207-1.195-1.048-.726-1.596-1.654-1.596-2.592h-1.5c0 1.569.919 2.909 2.242 3.825 1.326.918 3.118 1.462 5.061 1.462v-1.5zm-5.803-3.787c0-.937.548-1.865 1.596-2.591 1.045-.724 2.53-1.195 4.207-1.195v-1.5c-1.943 0-3.735.544-5.061 1.462-1.323.916-2.242 2.256-2.242 3.824h1.5zm5.803-3.786c1.676 0 3.161.471 4.207 1.195 1.048.726 1.596 1.654 1.596 2.591h1.5c0-1.568-.919-2.908-2.243-3.824-1.326-.918-3.117-1.462-5.06-1.462v1.5zm-8.812 13.504c1.805 1.923 5.054 2.749 8.09 2.729 1.541-.009 3.084-.236 4.442-.681 1.349-.443 2.567-1.12 3.397-2.067l-1.128-.988c-.593.677-1.54 1.237-2.737 1.63-1.189.39-2.575.598-3.984.606-2.864.019-5.601-.78-6.986-2.255l-1.094 1.026zm12.235-20.584c0-.662.735-1.459 2.01-1.459v-1.5c-1.773 0-3.51 1.173-3.51 2.959h1.5zm2.01-1.459c1.274 0 2.009.797 2.009 1.459h1.5c0-1.786-1.737-2.959-3.509-2.959v1.5zm-16.353 1.459c0-.662.735-1.459 2.009-1.459v-1.5c-1.772 0-3.509 1.173-3.509 2.959h1.5zm2.009-1.459c1.275 0 2.01.797 2.01 1.459h1.5c0-1.786-1.737-2.959-3.51-2.959v1.5zM85.633 343.683v-1.614h-1.5v1.614h1.5zm0-1.614v-1.614h-1.5v1.614h1.5zm1.75-3.364h26.986v-1.5H87.383v1.5zm79.72-36.578v36.942h1.5v-36.942h-1.5zm-51.984 35.828v-35.828h-1.5v35.828h1.5zm49.734 3.364h-.065v1.5h.065v-1.5zm-.065 0H84.883v1.5h79.905v-1.5zm.75 1.864v-1.114h-1.5v1.114h1.5zM5.987 250.527l-.73-.171v.002l-.002.006a63.804 63.804 0 00-.91 5.428c-.398 3.244-.687 7.59-.238 11.951.447 4.35 1.637 8.795 4.266 12.167 2.657 3.41 6.726 5.645 12.736 5.645v-1.5c-5.583 0-9.202-2.049-11.553-5.067-2.382-3.055-3.523-7.179-3.957-11.399-.433-4.208-.156-8.432.234-11.615.195-1.588.417-2.912.59-3.836a45.176 45.176 0 01.273-1.348l.016-.07a.41.41 0 00.004-.017v-.003l.001-.001-.73-.172zm43.633 6.24c-17.995 1.5-30.32-1.923-43.364-6.94l-.538 1.4c13.168 5.065 25.728 8.56 44.027 7.035l-.124-1.495zm-28.51 28.788c5.677 0 9.213 1.316 11.629 3.251 2.432 1.947 3.822 4.592 5.074 7.464 1.23 2.823 2.35 5.936 4.244 8.49 1.936 2.61 4.684 4.657 9.162 5.483l.272-1.475c-4.092-.754-6.511-2.585-8.23-4.902-1.76-2.374-2.783-5.238-4.073-8.195-1.268-2.909-2.777-5.846-5.512-8.036-2.751-2.204-6.65-3.58-12.567-3.58v1.5zm71.377 38.681c-2.022-2.326-2.914-5.19-3.292-7.512a20.16 20.16 0 01-.26-2.881 15.617 15.617 0 01.018-1.051l.004-.052v-.014.001l-.747-.061-.747-.061v.008l-.002.019a8.598 8.598 0 00-.017.321c-.008.217-.014.528-.008.915.013.773.076 1.855.278 3.097.403 2.473 1.367 5.641 3.642 8.255l1.132-.984zM51.22 310.243c8.978 1.656 15.315-3.669 21.053-9.089 2.906-2.744 5.65-5.508 8.584-7.607 2.917-2.087 5.944-3.455 9.37-3.455v-1.5c-3.854 0-7.184 1.547-10.242 3.735-3.042 2.176-5.892 5.045-8.742 7.737-5.772 5.451-11.591 10.209-19.751 8.704l-.272 1.475zm46.57 16.405c-2.124-.167-4.041-.963-5.302-2.412l-1.131.984c1.583 1.821 3.91 2.735 6.316 2.924l.118-1.496zm.665.548l-2.016-7.304-1.446.399 2.016 7.304 1.446-.399zm9.445-6.371c-.563 2.131-2.243 3.794-4.433 4.804l.628 1.362c2.47-1.139 4.547-3.101 5.255-5.783l-1.45-.383zm-4.433 4.804a11.62 11.62 0 01-5.676 1.019l-.118 1.496a13.13 13.13 0 006.422-1.153l-.628-1.362zm1.04.492l-2.016-7.731-1.452.378 2.017 7.731 1.451-.378zm-14.28-36.029c6.877 0 12.018 4.8 15.106 11.17 3.09 6.373 4.008 14.107 2.567 19.563l1.45.383c1.549-5.862.549-13.965-2.667-20.6-3.218-6.638-8.77-12.016-16.455-12.016v1.5zm24.002-39.104c4.99 3.451 8.813 6.766 11.119 10.244 2.282 3.443 3.08 7.045 2.022 11.16l1.453.373c1.175-4.571.265-8.606-2.225-12.362-2.467-3.721-6.481-7.167-11.515-10.649l-.854 1.234zm14.104 20.865c-8.546-2.702-13.503-11.399-12.928-21.439l-1.498-.086c-.603 10.544 4.615 19.997 13.974 22.955l.452-1.43zm-13.946-22.182c-4.48 1.719-8.952 5.266-12.025 9.491-3.066 4.213-4.83 9.235-3.636 13.881l1.453-.373c-1.04-4.04.466-8.599 3.396-12.626 2.921-4.015 7.168-7.368 11.35-8.973l-.538-1.4zm-14.72 23.89c4.57-1.444 8.33-3.596 11.039-7.261 2.701-3.656 4.289-8.728 4.699-15.886l-1.498-.086c-.4 6.993-1.942 11.743-4.408 15.08-2.458 3.327-5.9 5.337-10.284 6.723l.452 1.43zm216.187-169.85h16.991v-1.5h-16.991v1.5zm17.602 24.918a574.62 574.62 0 01-10.507-1.048l-.16 1.492c3.506.375 7.017.738 10.535 1.05l.132-1.494zm-10.509-1.048c-1.058-.11-2.059-.187-3.057-.348l-.238 1.481c1.053.169 2.133.254 3.14.359l.155-1.492zm-4.454 1.271c1.394.02 2.915.113 4.318.223l.117-1.496a70.75 70.75 0 00-4.414-.226l-.021 1.499zm5.475-3.87c2.685.139 5.345.541 8.049.95l.224-1.483c-2.691-.407-5.424-.822-8.196-.965l-.077 1.498zm8.049.95c.533.081 1.152.019 1.623-.245.241-.136.509-.364.634-.721.132-.379.054-.757-.124-1.07l-1.303.744c.016.028-.032-.048.011-.17.035-.1.093-.117.047-.091a.771.771 0 01-.258.074 1.457 1.457 0 01-.406-.004l-.224 1.483zm-.65 7.365c-3.62-.541-7.491-.984-11.069-1.431l-.186 1.488c3.6.45 7.437.889 11.033 1.426l.222-1.483zm-14.606.939c.007-.25.095-.397.227-.512.158-.137.416-.257.785-.338.743-.164 1.675-.115 2.339-.032l.186-1.488c-.715-.089-1.851-.164-2.847.055-.499.109-1.028.306-1.447.671a2.142 2.142 0 00-.742 1.599l1.499.045zm17.445-15.717l1.103-13.662-1.495-.121-1.103 13.662 1.495.121zm-18.303 11.732c-.014-.51.237-.834.731-1.072l-.651-1.351c-.865.416-1.614 1.203-1.579 2.465l1.499-.042zm.731-1.072c.52-.25 1.228-.346 1.846-.327l.046-1.499c-.758-.023-1.73.084-2.543.475l.651 1.351zm.421-.743l-2.143-23.679-1.494.135 2.144 23.679 1.493-.135zm3.243 3.43c-.405-.051-.976-.087-1.471-.134-.531-.052-1.058-.122-1.526-.245-.475-.125-.829-.29-1.057-.49-.203-.179-.33-.401-.341-.749l-1.499.047c.025.78.348 1.389.851 1.829.477.419 1.084.66 1.664.813.587.155 1.21.234 1.764.288.59.057 1.039.081 1.429.129l.186-1.488zm5.788-16.615c2.298 1.295 4.618 2.696 7.043 3.881l.659-1.347c-2.372-1.16-4.615-2.516-6.965-3.841l-.737 1.307zm7.043 3.881c1.856.907 3.648 1.769 5.259 2.921l.872-1.22c-1.732-1.239-3.645-2.155-5.472-3.048l-.659 1.347zm-40.502-89.881h9.574v-1.5h-9.574v1.5zm36.335 0h9.45v-1.5h-9.45v1.5zm9.45 0h17.312v-1.5h-17.312v1.5zM302.519 6.626h14.301v-1.5h-14.301v1.5zm15.187 0h10.453v-1.5h-10.453v1.5zm-2.126 69.025c6.984.004 11.97-4.505 16.517-9.622l-1.121-.997c-4.535 5.103-9.126 9.122-15.395 9.12l-.001 1.5zm-13.38-46.4h26.761v-1.5H302.2v1.5zm-2.66 36.764c4.21 4.94 8.801 9.633 16.04 9.636l.001-1.5c-6.49-.003-10.679-4.158-14.9-9.109l-1.141.973zm1.09 16.767c-2.362 4.966-5.972 9.978-9.629 14.632-3.628 4.617-7.346 8.934-9.794 12.381l1.223.869c2.425-3.415 6.052-7.616 9.751-12.323 3.669-4.671 7.367-9.791 9.803-14.914l-1.354-.645zm30.978 1.532c4.412 9.408 12.388 19.331 21.125 29.588l1.142-.973c-8.752-10.274-16.595-20.053-20.909-29.252l-1.358.637zm-32.114-18.358c1.943 2.801 2.913 5.534 3.065 8.28.152 2.75-.513 5.569-1.929 8.546l1.354.645c1.496-3.145 2.242-6.216 2.072-9.275-.169-3.063-1.253-6.058-3.329-9.05l-1.233.854zm31.422-.846c-4.16 6.135-2.025 13.411.692 19.204l1.358-.637c-2.701-5.759-4.473-12.321-.809-17.725l-1.241-.842zm-16.004 157.134l-.006-72.376h-1.5l.006 72.376h1.5zM273.79 130.62h20.366v-1.5H273.79v1.5zm26.79 105.958v-9.821h-1.5v9.821h1.5zm0 9.966v-9.966h-1.5v9.966h1.5zM209.07 66.358c2.745-7.68 10.804-12.666 18.856-13.1l-.081-1.498c-8.533.46-17.201 5.736-20.187 14.093l1.412.505zm18.856-13.1c7.446-.4 12.804 3.073 16.282 8.328 3.499 5.285 5.087 12.373 4.871 19.066l1.499.048c.224-6.928-1.411-14.341-5.119-19.942-3.728-5.633-9.562-9.431-17.614-8.998l.081 1.498zm-2.324 31.556c-.428-1.119-.357-2.493-.186-4.077.163-1.508.425-3.233.185-4.757l-1.482.233c.201 1.273-.017 2.732-.194 4.363-.168 1.554-.297 3.273.275 4.773l1.402-.535zm4.482-8.834c-.238 1.523-.053 3.088.093 4.507.15 1.464.26 2.785-.013 4.016l1.464.325c.334-1.502.188-3.06.041-4.494-.152-1.478-.305-2.83-.103-4.122l-1.482-.232zm.079 8.526c-.068.312-.286.601-.682.838-.399.238-.935.393-1.509.43-.573.037-1.13-.047-1.566-.231-.434-.184-.694-.442-.805-.73l-1.4.538c.298.775.931 1.28 1.62 1.573.688.291 1.486.396 2.248.347.761-.05 1.539-.256 2.182-.64.647-.386 1.199-.983 1.378-1.806l-1.466-.319zm-23.186 5.042c-.92 4.626-2.422 9.516-3.815 14.583-1.386 5.042-2.655 10.231-3.061 15.354l1.496.118c.393-4.972 1.629-10.046 3.011-15.075 1.376-5.004 2.906-9.99 3.84-14.687l-1.471-.293zm50.321 27.638c-.602-4.751-1.849-9.538-3.148-14.187-1.304-4.667-2.656-9.176-3.503-13.45l-1.471.291c.861 4.348 2.237 8.939 3.529 13.563 1.298 4.643 2.518 9.339 3.105 13.972l1.488-.189zm-1.47.281c1.169 4.545 3.36 9.16 5.306 12.76l1.32-.714c-1.925-3.56-4.049-8.05-5.174-12.42l-1.452.374zm5.966 13.153h11.996v-1.5h-11.996v1.5zm-.66-.393c3.902 7.214 9.026 13.69 13.586 20.333l1.237-.848c-4.639-6.758-9.651-13.076-13.503-20.199l-1.32.714zm-35.488 16.479c7.044.352 14.259-.895 19.678-3.241l-.596-1.376c-5.182 2.243-12.164 3.461-19.007 3.119l-.075 1.498zm-25.545-27.221c-.639 8.076 1.639 14.703 6.184 19.41 4.537 4.699 11.255 7.406 19.361 7.811l.075-1.498c-7.823-.391-14.146-2.993-18.357-7.355-4.202-4.352-6.378-10.534-5.767-18.25l-1.496-.118zm45.223 23.98c10.942-4.736 13.309-15.737 11.974-26.279l-1.488.189c1.303 10.288-1.062 20.376-11.082 24.714l.596 1.376zm-122.59 27.993c26.683-16.145 54.707-30.923 78.602-51.344l-.974-1.14c-23.773 20.316-51.618 34.993-78.405 51.2l.777 1.284zm8.018 11.119c11.534-5.698 23.293-11.147 34.803-16.959l-.676-1.339c-11.524 5.819-23.191 11.222-34.791 16.953l.664 1.345zM99.297 194.19c.96.434 2.13.584 3.199.447l-.19-1.488c-.821.105-1.708-.017-2.39-.326l-.62 1.367zm-6.081-3.493a346.396 346.396 0 0110.631-7.325l-.829-1.25a347.441 347.441 0 00-10.677 7.357l.875 1.218zm10.631-7.325c6.2-4.111 12.506-8.054 18.887-11.914l-.777-1.284c-6.392 3.868-12.717 7.822-18.939 11.948l.829 1.25zm-1.351 11.265c3.157-.403 5.921-1.708 8.401-3.366l-.833-1.247c-2.358 1.576-4.903 2.761-7.758 3.125l.19 1.488zm-16.956 2.38c2.558-2.205 5.028-4.417 7.676-6.32l-.876-1.218c-2.716 1.952-5.254 4.224-7.78 6.402l.98 1.136zm-4.732 8.71c-1.217.481-2.12.846-2.944.967-.764.112-1.433.009-2.172-.489l-.838 1.244c1.08.727 2.133.89 3.228.729 1.036-.152 2.127-.601 3.278-1.056l-.552-1.395zm-4.93-1.661c3.546-1.891 6.658-4.459 9.662-7.049l-.98-1.136c-3.002 2.588-6.003 5.057-9.388 6.861l.705 1.324zm-.186 2.139c-.754-.508-.761-1.635.185-2.139l-.705-1.324c-1.928 1.027-2.026 3.557-.318 4.707l.838-1.244zm59.695 46.148c-9.086-1.913-15.041-2.861-20.749-2.732l.034 1.5c5.52-.126 11.328.789 20.406 2.7l.309-1.468zm-20.749-2.732c-6.325.144-12.781 1.625-23.369 4.272l.364 1.455c10.619-2.655 16.91-4.088 23.039-4.227l-.034-1.5zm37.762 46.248c-1.094-2.985-2.393-6.469-3.493-9.445l-1.407.521c1.103 2.981 2.398 6.458 3.492 9.44l1.408-.516zm-57.521-57.406c-.297 4.704-1.75 10.283-4.119 15.864l1.381.586c2.416-5.693 3.925-11.441 4.235-16.355l-1.497-.095zm-4.119 15.864c-2.574 6.066-6.212 12.093-10.566 16.96-4.358 4.872-9.393 8.538-14.752 9.969l.387 1.449c5.738-1.532 11.01-5.417 15.484-10.418 4.479-5.007 8.2-11.18 10.828-17.374l-1.38-.586zm71.224 26.929c-5.245-1.4-10.449-5.482-15.025-10.787-4.564-5.29-8.438-11.72-11.039-17.682l-1.375.6c2.655 6.085 6.606 12.646 11.278 18.062 4.66 5.402 10.107 9.743 15.774 11.256l.387-1.449zm-26.064-28.469c-2.505-5.741-3.063-9.402-3.373-14.324l-1.497.095c.318 5.048.903 8.89 3.495 14.829l1.375-.6zm12.987 33.637c-4.166-11.266-8.452-22.487-12.98-33.62l-1.389.566c4.52 11.112 8.8 22.318 12.962 33.575l1.407-.521zm12.881 59.009H103.78v1.5h58.008v-1.5zm-58.008 0H87.383v1.5h16.397v-1.5zm16.589-48.556h31.327v-1.5h-31.327v1.5zm31.327 0h10.157v-1.5h-10.157v1.5zm-103.427-22.88c-1.608-3.371-1.98-6.26-1.538-8.835.444-2.586 1.721-4.927 3.535-7.177l-1.167-.941c-1.913 2.372-3.345 4.945-3.846 7.864-.503 2.928-.057 6.131 1.662 9.735l1.354-.646zm1.998-16.012c2.03-2.516 4.693-4.87 7.527-7.289 2.816-2.403 5.802-4.871 8.383-7.568l-1.084-1.037c-2.515 2.628-5.427 5.035-8.273 7.464-2.827 2.413-5.592 4.849-7.721 7.489l1.168.941zm79.114-59.839c-3.137-4.366-8.297-6.76-13.621-7.246-5.323-.486-10.911.924-14.957 4.293l.959 1.152c3.691-3.072 8.865-4.407 13.861-3.951 4.995.456 9.712 2.691 12.54 6.628l1.218-.876zm-28.578-2.953c-4.5 3.745-6.555 9.572-7.054 15.111l1.494.134c.479-5.312 2.437-10.694 6.519-14.093l-.959-1.152zm99.189 50.178h-1.142v1.5h1.142v-1.5zm-14.393 98.312v-83.562h-1.5v83.562h1.5zm14.393-96.812h16.02v-1.5h-16.02v1.5zm16.02 0h29.014v-1.5h-29.014v1.5zm28.273-.867c-1.742 11.057-3.762 21.771-6.123 32.226l1.463.33c2.369-10.49 4.395-21.236 6.142-32.322l-1.482-.234zm-6.123 32.226c-2.471 10.94-5.315 21.597-8.603 32.069l1.431.449c3.301-10.513 6.156-21.21 8.635-32.188l-1.463-.33zm.731-.585H202.67v1.5h36.223v-1.5zm-8.985 33.533a55 55 0 006.329 3.024l.559-1.391a53.643 53.643 0 01-6.156-2.942l-.732 1.309zm6.329 3.024c6.641 2.67 14.165 4.198 21.287 3.442l-.158-1.492c-6.816.724-14.09-.737-20.57-3.341l-.559 1.391zm21.287 3.442c3.034-.323 5.999-1.06 8.791-2.304l-.611-1.37c-2.632 1.172-5.441 1.874-8.338 2.182l.158 1.492zm-21.697-4.433a200.585 200.585 0 00-2.032 4.931l1.394.554a198.273 198.273 0 012.017-4.894l-1.379-.591zm23.774 12.615c-.869-1.188-1.355-2.387-1.59-3.591l-1.472.288c.276 1.413.849 2.818 1.851 4.188l1.211-.885zm-1.59-3.591c-.331-1.691-.172-3.424.171-5.195l-1.473-.285c-.359 1.851-.554 3.803-.17 5.768l1.472-.288zm-24.216-4.093c-1.64 4.128-3.165 8.324-4.63 12.498l1.415.497c1.462-4.164 2.98-8.339 4.609-12.441l-1.394-.554zm-4.63 12.498c-.316.899-.629 1.797-.939 2.693l1.417.492c.31-.895.622-1.791.937-2.688l-1.415-.497zm33.7-44.211a47.038 47.038 0 007.914 2.252l.286-1.472a45.589 45.589 0 01-7.661-2.18l-.539 1.4zm7.914 2.252c1.717.334 3.475.583 5.251.738l.13-1.494a49.26 49.26 0 01-5.095-.716l-.286 1.472zm4.566-.009c0 2.144-.13 4.284-.238 6.461l1.498.075c.107-2.154.24-4.344.24-6.536h-1.5zm.685.747c7.236.632 14.812-.282 21.177-3.335l-.649-1.353c-6.064 2.909-13.357 3.809-20.398 3.194l-.13 1.494zm21.177-3.335a29.015 29.015 0 003.026-1.677l-.806-1.265a27.452 27.452 0 01-2.869 1.589l.649 1.353zm2.053 5.315c-.931-1.641-1.397-3.635-1.631-6.063l-1.493.144c.243 2.52.739 4.754 1.819 6.659l1.305-.74zm-23.707 4.458c7.894 3.483 16.732.671 23.447-3.449l-.785-1.278c-6.561 4.025-14.838 6.539-22.057 3.354l-.605 1.373zm31.434-11.462v14.122h1.5v-14.122h-1.5zm1.066 13.442c-1.663-.774-3.427-1.61-5.006-2.654-1.578-1.043-2.926-2.265-3.787-3.784l-1.305.74c1.021 1.8 2.578 3.18 4.265 4.295 1.685 1.114 3.545 1.993 5.201 2.763l.632-1.36zM280.3 317.465c9.175 2.25 18.833 3.668 28.274 4.923l.198-1.486c-9.436-1.255-19.025-2.665-28.115-4.894l-.357 1.457zm27.623 4.18v20.021h1.5v-20.021h-1.5zm13.32 20.021V323.33h-1.5v18.336h1.5zm-12.669-19.278c3.943.525 7.873 1.089 11.807 1.683l.224-1.483a670.797 670.797 0 00-11.833-1.686l-.198 1.486zm23.346 1.175c1.843-.728 3.891-1.965 5.37-3.747 1.496-1.801 2.407-4.16 1.917-7.042l-1.479.251c.406 2.389-.333 4.317-1.592 5.833-1.275 1.536-3.086 2.646-4.767 3.31l.551 1.395zm-11.539.508c3.693.559 7.781.976 11.539-.508l-.551-1.395c-3.347 1.321-7.069.979-10.764.42l-.224 1.483zm.33-21.714c-4.343-1.32-8.645-2.653-12.658-4.52l-.632 1.36c4.122 1.918 8.521 3.279 12.854 4.595l.436-1.435zm18.496 10.417c-.371-2.176-1.731-3.69-3.364-4.789l-.838 1.244c1.428.962 2.445 2.162 2.723 3.796l1.479-.251zm-3.364-4.789c-2.222-1.496-4.816-2.535-7.433-3.382-2.576-.834-5.343-1.53-7.699-2.246l-.436 1.435c2.504.761 5.066 1.394 7.673 2.238 2.565.83 5.006 1.818 7.057 3.199l.838-1.244zm-35.263-24.211v-5.379h-1.5v5.379h1.5zm0-5.379v-31.851h-1.5v31.851h1.5zm-.75.75h1.907v-1.5h-1.907v1.5zm-24.723 15.988c-.219 4.414-.476 9.209-.605 13.284l1.499.048c.129-4.058.384-8.833.604-13.257l-1.498-.075zm-.605 13.284c-.032.984-.055 1.927-.069 2.813l1.499.024c.014-.877.038-1.812.069-2.789l-1.499-.048zm.203.538c1.455 1.548 3.041 2.644 5.208 3.193l.368-1.454c-1.83-.464-3.177-1.378-4.483-2.767l-1.093 1.028zm1.65-114.273c-9.999.499-21.438 5.734-32.187 11.732-5.389 3.006-10.637 6.224-15.471 9.164-4.844 2.946-9.263 5.608-13.025 7.526l.682 1.336c3.821-1.948 8.288-4.64 13.122-7.58 4.843-2.946 10.064-6.146 15.423-9.136 10.744-5.995 21.913-11.064 31.531-11.543l-.075-1.499zm24.225 32.078c.028-7.673-1.542-15.872-5.354-22.072-3.838-6.242-9.954-10.45-18.871-10.006l.075 1.499c8.297-.414 13.927 3.452 17.518 9.293 3.617 5.883 5.159 13.776 5.132 21.28l1.5.006zm-25.86-76.199c2.497 3.635 5.626 7.992 8.173 12.653 2.549 4.665 4.466 9.549 4.594 14.213l1.5-.042c-.139-5.015-2.187-10.149-4.778-14.891-2.594-4.746-5.781-9.184-8.252-12.783l-1.237.85zm12.767 26.866c.072 2.615-1.129 7.047-3.216 10.81-1.038 1.871-2.269 3.529-3.623 4.695-1.352 1.166-2.776 1.801-4.23 1.75l-.052 1.499c1.952.068 3.731-.793 5.262-2.113 1.53-1.319 2.863-3.136 3.954-5.103 2.171-3.915 3.486-8.614 3.405-11.58l-1.5.042zm-11.069 17.255c-14.089-.492-28.365-1.125-41.135.101l.143 1.493c12.65-1.214 26.811-.588 40.94-.095l.052-1.499zM225.2 146.531c5.468 4.61 7.959 11.942 9.012 20.077l1.487-.192c-1.069-8.262-3.632-16.058-9.532-21.032l-.967 1.147zm9.012 20.077c1.289 9.966.393 20.819.393 28.922h1.5c0-7.922.899-19.023-.406-29.114l-1.487.192zm-31.641 49.07c.548.585 1.272.881 2.013 1.011.737.13 1.536.103 2.303.003 1.533-.2 3.08-.714 4.036-1.058l-.508-1.411c-.935.337-2.357.803-3.722.982-.682.089-1.316.101-1.85.007-.531-.093-.918-.283-1.178-.56l-1.094 1.026zm24.299-6.536c-5.308 3.814-10.622 7.62-16.224 10.907l.759 1.294c5.671-3.328 11.04-7.175 16.341-10.983l-.876-1.218zm-.136.408c.233-.087.584-.229.914-.318.169-.045.277-.06.328-.06.025 0-.004.004-.063-.017a.535.535 0 01-.272-.229l1.287-.772c-.274-.456-.773-.483-.96-.482a2.905 2.905 0 00-.706.111c-.422.113-.875.295-1.052.361l.524 1.406zm.907-.624a.45.45 0 01-.041-.406c.002-.005-.004.008-.028.038a1.205 1.205 0 01-.099.106c-.184.18-.43.352-.606.48l.882 1.213c.135-.098.49-.344.772-.619.138-.135.308-.322.42-.547.114-.228.23-.632-.013-1.037l-1.287.772zm-16.716 6.708c2.665-.967 5.3-2.008 7.923-3.046 2.626-1.04 5.24-2.075 7.881-3.036l-.514-1.41c-2.663.97-5.297 2.013-7.919 3.051-2.626 1.039-5.241 2.073-7.883 3.031l.512 1.41zm-10.701-10.678c-.631.335-1.314.895-1.496 1.84l1.473.284c.059-.307.282-.564.726-.799l-.703-1.325zm35.059-10.173a102.78 102.78 0 00-8.263 1.113l.263 1.476c2.626-.469 5.346-.827 8.143-1.096l-.143-1.493zm-26.419 6.052c-1.472.617-2.707 1.233-4.025 1.896-1.319.663-2.727 1.376-4.571 2.203l.614 1.369c1.878-.843 3.314-1.57 4.631-2.232 1.318-.662 2.511-1.257 3.931-1.852l-.58-1.384zm18.156-4.939c-6.102 1.089-12.373 2.515-18.156 4.939l.58 1.384c5.631-2.361 11.774-3.763 17.839-4.847l-.263-1.476zm72.81 51.398h6.663v-1.5h-6.663v1.5zm21.413 55.781v-42.531h-1.5v42.531h1.5zm8.658-36.727v-5.973h-1.5v5.973h1.5zm61.387-5.973v5.973h1.5v-5.973h-1.5zm-7.365-7.25h.115v-1.5h-.115v1.5zm-46.772 0h24.418v-1.5h-24.418v1.5zm24.418 0h22.354v-1.5h-22.354v1.5zm-17.04 20.473h-7.378v1.5h7.378v-1.5zm7.647 0h-7.647v1.5h7.647v-1.5zm15.153 0h-15.153v1.5h15.153v-1.5zm16.709 0h-9.276v1.5h9.276v-1.5zm-9.276 0h-7.433v1.5h7.433v-1.5zm-.725.941l17.55 66.682 1.45-.382-17.549-66.682-1.451.382zm10.999 67.552l-16.98-67.925-1.455.364 16.98 67.924 1.455-.363zm-48.887-33.292l9.105-34.258-1.45-.386-9.105 34.259 1.45.385zm15.3-34.635l-17.168 67.931 1.454.368 17.168-67.931-1.454-.368zm101.353-31.266c-4.736-2.903-9.434-3.611-14.8-3.059-5.321.546-11.349 2.34-18.738 4.451l.412 1.442c7.449-2.128 13.323-3.871 18.479-4.401 5.111-.526 9.464.149 13.863 2.846l.784-1.279zm-33.538 1.392c-11.447 3.27-23.564 7.335-35.341 7.335v1.5c12.044 0 24.424-4.156 35.753-7.393l-.412-1.442zm-13.448 59.977c-3.217-2.061-6.005-4.782-7.464-8.139l-1.375.598c1.616 3.719 4.659 6.645 8.03 8.804l.809-1.263zm14.276 4.519c-1.404.15-3.651-.125-6.245-.884-2.576-.755-5.428-1.968-8.031-3.635l-.809 1.263c2.736 1.753 5.722 3.021 8.419 3.811 2.68.785 5.144 1.117 6.826.936l-.16-1.491zm50.619-81.052c3.785 6.113 3.286 13.664.107 21.814-3.177 8.143-8.979 16.742-15.555 24.798-13.147 16.107-29.243 29.878-33.124 33.285l.989 1.127c3.869-3.395 20.059-17.245 33.297-33.463 6.616-8.106 12.531-16.846 15.79-25.202 3.257-8.348 3.915-16.457-.229-23.149l-1.275.79zm-48.572 79.897c-.811.711-1.2 1.064-2.047 1.155l.16 1.491c1.379-.148 2.099-.837 2.876-1.519l-.989-1.127zm-23.331 13.132c.362-2.683 1.513-5.502 2.919-8.195 1.406-2.691 3.032-5.193 4.322-7.274l-1.275-.791c-1.268 2.046-2.937 4.616-4.376 7.371-1.438 2.752-2.681 5.752-3.077 8.689l1.487.2zm-5.816 5.582c-.441-1.563.08-2.741 1.06-3.574 1.019-.867 2.55-1.358 4.013-1.358v-1.5c-1.751 0-3.646.577-4.985 1.715-1.378 1.172-2.148 2.937-1.532 5.124l1.444-.407zm9.665 5.208c-2.592-3.196-4.387-6.805-3.849-10.79l-1.487-.2c-.618 4.585 1.472 8.606 4.171 11.934l1.165-.944zm28.433 19.316c-2.921.678-6.026-.475-9.208-2.554-3.174-2.073-6.256-4.952-9.124-7.498l-.996 1.122c2.817 2.5 6.008 5.481 9.299 7.632 3.283 2.144 6.835 3.579 10.368 2.759l-.339-1.461zm-2.948-14.53c1.736 2.371 3.525 4.711 5.415 6.978l1.152-.961c-1.863-2.235-3.633-4.548-5.357-6.903l-1.21.886zm.048-.945c-3.863 4.294-10.088 5.492-15.897 5.234l-.066 1.499c5.975.265 12.767-.938 17.078-5.73l-1.115-1.003zm-8.628-11.176a553.8 553.8 0 012.97 4.214l1.229-.86a555.015 555.015 0 00-2.978-4.226l-1.221.872zm2.97 4.214c1.848 2.64 3.698 5.296 5.61 7.907l1.21-.886c-1.9-2.596-3.74-5.237-5.591-7.881l-1.229.86zm11.025 14.885c1.614 1.937 1.743 3.971.843 5.419l1.273.792c1.32-2.122.962-4.861-.964-7.172l-1.152.961zm.843 5.419c-.591.949-1.679 1.75-3.312 2.134l.343 1.46c1.943-.457 3.404-1.454 4.242-2.802l-1.273-.792zm-21.642-7.919c-3.542-3.144-7.219-5.709-10.101-9.264l-1.165.944c2.984 3.68 6.9 6.451 10.27 9.442l.996-1.122zm34.245-38.601c.59.262 1.167.509 1.733.743l.572-1.387a70.922 70.922 0 01-1.698-.727l-.607 1.371zm-3.354 10.349c-.145 2.431.918 4.607 2.418 6.369 1.5 1.762 3.484 3.168 5.325 4.09l.672-1.341c-1.7-.852-3.511-2.143-4.855-3.722-1.345-1.579-2.177-3.388-2.063-5.307l-1.497-.089zm9.685 5.725l11.081 5.553.672-1.341-11.08-5.553-.673 1.341zm-4.598-15.331c7.065 2.917 12.334 3.655 18.462 2.333l-.317-1.466c-5.754 1.242-10.708.58-17.573-2.254l-.572 1.387zm18.462 2.333c2.808-.606 5.778-1.641 9.165-3.07l-.583-1.382c-3.342 1.41-6.217 2.407-8.899 2.986l.317 1.466zm10.387 11.378c-1.782-1.55-4.208-3.338-6.267-5.455-2.058-2.116-3.529-4.354-3.529-6.656h-1.5c0 2.922 1.842 5.531 3.953 7.702 2.11 2.169 4.71 4.107 6.358 5.54l.985-1.131zm12.279 9.678a92.764 92.764 0 01-3.585-2.603l-.907 1.195a94.79 94.79 0 003.645 2.646l.847-1.238zm-3.585-2.603a173.957 173.957 0 01-8.694-7.075l-.985 1.131a175.42 175.42 0 008.772 7.139l.907-1.195zm-8.924 6.049c2.506-2.264 5.444-3.714 8.696-4.736l-.45-1.431c-3.393 1.066-6.542 2.606-9.251 5.054l1.005 1.113zm18.354 6.314c.37-.631.454-1.386.395-2.063a4.804 4.804 0 00-.579-1.917l-1.304.742c.197.347.348.822.389 1.304.042.488-.034.9-.196 1.176l1.295.758zm-7.872-.526c.725.363 2.203 1.167 3.659 1.579.729.206 1.525.336 2.264.226.771-.114 1.489-.494 1.949-1.279l-1.295-.758c-.19.326-.469.494-.874.554-.437.064-.996-.006-1.636-.187-1.283-.362-2.598-1.077-3.395-1.476l-.672 1.341zm-23.422-11.739l12.101 6.065.673-1.341-12.102-6.065-.672 1.341zm12.101 6.065l11.321 5.674.672-1.341-11.32-5.674-.673 1.341zm-28.147-28.01c-.434.769-.921 1.561-1.425 2.396-.5.828-1.012 1.692-1.477 2.578-.927 1.767-1.699 3.682-1.818 5.693l1.497.089c.101-1.698.76-3.39 1.649-5.085.443-.844.936-1.675 1.434-2.5.494-.819.998-1.64 1.447-2.435l-1.307-.736zm20.342-78.635c-4.913-4.6-10.839-7.53-18.458-9.223l-.325 1.465c7.405 1.645 13.075 4.468 17.757 8.853l1.026-1.095zm3.238 3.627a27.447 27.447 0 00-3.238-3.627l-1.026 1.095a25.96 25.96 0 013.063 3.43l1.201-.898zm4.827 74.896c4.099-11.306 6.739-24.859 6.439-38.159-.3-13.298-3.541-26.399-11.266-36.737l-1.201.898c7.481 10.012 10.672 22.777 10.968 35.873.295 13.092-2.306 26.46-6.35 37.614l1.41.511zm1.992-70.284a.487.487 0 01-.342.113c-.198-.001-.537-.07-1.091-.347l-.671 1.341c.663.332 1.237.503 1.752.506.546.003.966-.182 1.293-.445l-.941-1.168zm-.911-3.367c.157.321.385.715.568 1.055.197.365.371.716.488 1.048.117.337.155.598.131.795a.676.676 0 01-.276.469l.941 1.168a2.17 2.17 0 00.823-1.453c.064-.519-.048-1.03-.204-1.474a8.814 8.814 0 00-.583-1.265c-.218-.405-.399-.714-.54-1.003l-1.348.66zm-7.727-12.98c1.859 3.129 5.099 7.61 7.727 12.98l1.348-.66c-2.657-5.429-6.026-10.123-7.785-13.086l-1.29.766zm-12.91-11.291c5.268 2.242 9.988 6.372 12.91 11.291l1.29-.766c-3.085-5.193-8.051-9.539-13.613-11.905l-.587 1.38zm-95.651 47.761c-7.008 0-11.758-2.263-14.855-6.064-3.124-3.833-4.655-9.337-4.97-15.978l-1.498.071c.322 6.794 1.893 12.668 5.305 16.855 3.438 4.219 8.656 6.616 16.018 6.616v-1.5zm59.06-111.734c-.001-.003.037.148-.043.58-.074.392-.222.908-.45 1.543-.454 1.266-1.194 2.923-2.161 4.852-1.931 3.854-4.737 8.733-7.887 13.638l1.262.81c3.172-4.938 6.006-9.864 7.966-13.776.979-1.954 1.748-3.67 2.232-5.017.241-.672.418-1.272.512-1.776.086-.463.132-.986-.038-1.411l-1.393.557zm-10.541 20.613c-1.435 2.235-3.307 4.474-5.145 6.822-1.817 2.322-3.59 4.738-4.715 7.239l1.368.616c1.044-2.321 2.714-4.612 4.528-6.93 1.794-2.292 3.741-4.624 5.226-6.937l-1.262-.81zm-9.86 14.061c-3.443 7.65-3.548 16.07-.513 23.102l1.378-.594c-2.858-6.622-2.778-14.602.503-21.892l-1.368-.616zm-.513 23.102c2.41 5.584 6.824 10.363 12.993 12.703l.532-1.402c-5.741-2.178-9.877-6.634-12.147-11.895l-1.378.594zm-26.438 4.837c4.697-1.315 14.771-3.301 27.192-4.387l-.13-1.494c-12.492 1.092-22.66 3.091-27.466 4.437l.404 1.444zm27.192-4.387c17.924-1.566 40.357-1.224 56.751 5.747l.587-1.381c-16.748-7.121-39.492-7.431-57.468-5.86l.13 1.494zm24.793-89.709l2.301-9.193-1.455-.364-2.301 9.192 1.455.365zm-.262.406c1.091-.862 2.039-1.698 3.109-2.458l-.868-1.223c-1.107.786-2.166 1.71-3.171 2.504l.93 1.177zm-6.055 6.699a27.479 27.479 0 016.055-6.699l-.93-1.177a28.954 28.954 0 00-6.387 7.066l1.262.81zm-37.607 19.741c3.855.454 8.268 2.969 12.092 6.686l1.045-1.076c-3.953-3.842-8.657-6.593-12.961-7.099l-.176 1.489zm12.092 6.686a33.86 33.86 0 015.446 6.872l1.288-.768a35.388 35.388 0 00-5.689-7.18l-1.045 1.076zm-1.933-84.9c1.376 1.22 2.325 3.53 3.064 6.527.732 2.968 1.216 6.408 1.79 9.775l1.479-.252c-.563-3.301-1.063-6.843-1.813-9.883-.742-3.01-1.773-5.736-3.525-7.289l-.995 1.123zm4.854 16.302c.442 2.593.938 5.136 1.644 7.291.7 2.138 1.643 4.01 3.053 5.15l.943-1.165c-1.066-.863-1.896-2.393-2.571-4.452-.668-2.04-1.149-4.489-1.59-7.076l-1.479.252zm-54.607 156.241c-.581-12.228 2.972-27.975 7.707-43.235 4.729-15.241 10.607-29.909 14.622-39.962l-1.393-.556c-4.013 10.047-9.913 24.767-14.662 40.073-4.742 15.286-8.366 31.245-7.772 43.751l1.498-.071zm22.329-83.197c1.823-4.565 3.272-8.201 4.045-10.492l-1.421-.48c-.757 2.243-2.186 5.831-4.017 10.416l1.393.556zm107.184-69.248c1.872 1.188 4.094 1.91 6.546 1.887l-.014-1.5c-2.139.02-4.08-.608-5.729-1.653l-.803 1.266zm18.513-9.934c-.023-6.402-5.28-11.747-11.966-11.815l-.016 1.5c5.881.06 10.462 4.753 10.482 10.32l1.5-.005zm-24.126.004c.002 1.398.262 2.74.731 3.995l1.405-.525a9.914 9.914 0 01-.636-3.472l-1.5.002zm12.16-11.82c-6.417-.066-12.169 5.256-12.16 11.82l1.5-.002c-.008-5.68 5.013-10.376 10.644-10.318l.016-1.5zm-.001 23.637c6.313-.06 11.991-5.354 11.967-11.82l-1.5.005c.021 5.582-4.932 10.263-10.481 10.315l.014 1.5zm-86.515 187.323a7.25 7.25 0 01-7.25 7.25v1.5a8.75 8.75 0 008.75-8.75h-1.5zm1.5-5.973a8.75 8.75 0 00-8.75-8.75v1.5a7.25 7.25 0 017.25 7.25h1.5zm-277.669 41.752c0-2.9 2.35-5.25 5.25-5.25v-1.5a6.75 6.75 0 00-6.75 6.75h1.5zm213.282-35.779a8.75 8.75 0 008.75 8.75v-1.5a7.25 7.25 0 01-7.25-7.25h-1.5zm-161.298 72.721a2.25 2.25 0 01-2.25 2.25v1.5a3.75 3.75 0 003.75-3.75h-1.5zm162.798-78.694a7.25 7.25 0 017.25-7.25v-1.5a8.75 8.75 0 00-8.75 8.75h1.5zm-14.995-110.507c-.002-11.459-9.291-20.748-20.75-20.748v1.5c10.63 0 19.249 8.617 19.25 19.248h1.5zM168.603 302.127a6.75 6.75 0 00-6.75-6.75v1.5c2.9 0 5.25 2.35 5.25 5.25h1.5zm137.89-54.833c7.318 0 13.25 5.932 13.25 13.25h1.5c0-8.146-6.603-14.75-14.75-14.75v1.5zm6.919-25.05c.001 7.502-6.08 13.584-13.582 13.584v1.5c8.33 0 15.083-6.753 15.082-15.084h-1.5zM164.038 343.183a2.25 2.25 0 01-2.25 2.25v1.5a3.75 3.75 0 003.75-3.75h-1.5zm153.955 1.733a3.25 3.25 0 003.25-3.25h-1.5a1.75 1.75 0 01-1.75 1.75v1.5zm-232.36-4.461c0-.967.784-1.75 1.75-1.75v-1.5a3.25 3.25 0 00-3.25 3.25h1.5zm301.101 2.961a1.75 1.75 0 01-1.698-1.325l-1.455.363a3.249 3.249 0 003.153 2.462v-1.5zm3.16 1.5a3.25 3.25 0 003.143-4.077l-1.45.382a1.75 1.75 0 01-1.693 2.195v1.5zm-78.721-1.5a1.75 1.75 0 01-1.75-1.75h-1.5a3.25 3.25 0 003.25 3.25v-1.5zm-117.003 3.517c1.79 0 3.25-1.437 3.25-3.237h-1.5c0 .961-.778 1.737-1.75 1.737v1.5zm138.414-2.017a3.25 3.25 0 003.151-2.453l-1.454-.368a1.751 1.751 0 01-1.697 1.321v1.5zm-24.097-60.521a6.75 6.75 0 00-6.75-6.75v1.5a5.25 5.25 0 015.25 5.25h1.5zM84.133 343.683a3.25 3.25 0 003.25 3.25v-1.5a1.75 1.75 0 01-1.75-1.75h-1.5zm114.717-98.312c-8.147 0-14.751 6.604-14.751 14.75h1.5c0-7.318 5.933-13.25 13.251-13.25v-1.5zm-11.501 100.062a1.75 1.75 0 01-1.75-1.75h-1.5a3.25 3.25 0 003.25 3.25v-1.5zm10.071-61.04a5.248 5.248 0 015.25-5.248v-1.5a6.748 6.748 0 00-6.75 6.748h1.5zm131.853 59.023a1.75 1.75 0 01-1.692-2.196l-1.451-.382a3.25 3.25 0 003.143 4.078v-1.5z" fill="#071D2B"/></svg>